<svg width="354" height="75" viewBox="0 0 354 75" fill="none" xmlns="http://www.w3.org/2000/svg">
<path d="M351.807 0C352.73 4.8842e-05 353.16 1.14363 352.466 1.75195L346.764 6.74805C346.309 7.14637 346.309 7.85363 346.764 8.25195L353.606 14.248C354.061 14.6464 354.061 15.3536 353.606 15.752L346.764 21.748C346.309 22.1464 346.309 22.8536 346.764 23.252L353.606 29.248C354.061 29.6464 354.061 30.3536 353.606 30.752L346.764 36.748C346.309 37.1464 346.309 37.8536 346.764 38.252L353.606 44.248C354.061 44.6464 354.061 45.3536 353.606 45.752L346.764 51.748C346.309 52.1464 346.309 52.8536 346.764 53.252L353.606 59.248C354.061 59.6464 354.061 60.3536 353.606 60.752L346.764 66.748C346.309 67.1464 346.309 67.8536 346.764 68.252L352.466 73.248C353.16 73.8564 352.73 75 351.807 75H12C5.37258 75 0 69.6274 0 63V12C1.06306e-06 5.37258 5.37258 2.60677e-07 12 0H351.807Z" fill="#101827"/>
<path d="M19.0693 14.0469V24H17.0254V14.0469H19.0693ZM17.0254 12.3516C17.0254 12.0872 17.1165 11.8685 17.2988 11.6953C17.4857 11.5221 17.7318 11.4355 18.0371 11.4355C18.3424 11.4355 18.5863 11.5221 18.7686 11.6953C18.9554 11.8685 19.0488 12.0872 19.0488 12.3516C19.0488 12.6159 18.9554 12.8346 18.7686 13.0078C18.5863 13.1764 18.3424 13.2607 18.0371 13.2607C17.7318 13.2607 17.4857 13.1764 17.2988 13.0078C17.1165 12.8346 17.0254 12.6159 17.0254 12.3516ZM22.9453 13.5V24H20.9697V13.5H22.9453ZM26.6504 13.5V24H24.6748V13.5H26.6504ZM30.3555 16.6035V24H28.3799V16.6035H30.3555ZM28.2568 14.6758C28.2568 14.3887 28.3571 14.1517 28.5576 13.9648C28.7581 13.778 29.027 13.6846 29.3643 13.6846C29.6969 13.6846 29.9635 13.778 30.1641 13.9648C30.3691 14.1517 30.4717 14.3887 30.4717 14.6758C30.4717 14.9629 30.3691 15.1999 30.1641 15.3867C29.9635 15.5736 29.6969 15.667 29.3643 15.667C29.027 15.667 28.7581 15.5736 28.5576 15.3867C28.3571 15.1999 28.2568 14.9629 28.2568 14.6758ZM33.9512 13.4932V24H31.9824V13.4932H33.9512ZM38.6133 16.6035L35.4004 20.2676L33.6777 22.0107L32.96 20.5889L34.3271 18.8525L36.248 16.6035H38.6133ZM36.5693 24L34.3818 20.582L35.7422 19.3926L38.8389 24H36.5693ZM44.916 18.0254V26.8438H42.9473V16.6035H44.7725L44.916 18.0254ZM49.5986 20.2197V20.3633C49.5986 20.901 49.5348 21.4001 49.4072 21.8604C49.2842 22.3206 49.1019 22.7217 48.8604 23.0635C48.6188 23.4007 48.318 23.665 47.958 23.8564C47.6025 24.0433 47.1924 24.1367 46.7275 24.1367C46.2764 24.1367 45.8844 24.0456 45.5518 23.8633C45.2191 23.681 44.9388 23.4258 44.7109 23.0977C44.4876 22.765 44.3076 22.3799 44.1709 21.9424C44.0342 21.5049 43.9294 21.0355 43.8564 20.5342V20.1582C43.9294 19.6204 44.0342 19.1283 44.1709 18.6816C44.3076 18.2305 44.4876 17.8408 44.7109 17.5127C44.9388 17.18 45.2168 16.9225 45.5449 16.7402C45.8776 16.5579 46.2673 16.4668 46.7139 16.4668C47.1833 16.4668 47.5957 16.5557 47.9512 16.7334C48.3112 16.9111 48.612 17.1663 48.8535 17.499C49.0996 17.8317 49.2842 18.2282 49.4072 18.6885C49.5348 19.1488 49.5986 19.6592 49.5986 20.2197ZM47.623 20.3633V20.2197C47.623 19.9053 47.5957 19.6159 47.541 19.3516C47.4909 19.0827 47.4089 18.848 47.2949 18.6475C47.1855 18.4469 47.0397 18.292 46.8574 18.1826C46.6797 18.0687 46.4632 18.0117 46.208 18.0117C45.9391 18.0117 45.709 18.055 45.5176 18.1416C45.3307 18.2282 45.1781 18.3535 45.0596 18.5176C44.9411 18.6816 44.8522 18.8776 44.793 19.1055C44.7337 19.3333 44.6973 19.5908 44.6836 19.8779V20.8281C44.7064 21.1654 44.7702 21.4684 44.875 21.7373C44.9798 22.0016 45.1416 22.2113 45.3604 22.3662C45.5791 22.5212 45.8662 22.5986 46.2217 22.5986C46.4814 22.5986 46.7002 22.5417 46.8779 22.4277C47.0557 22.3092 47.1992 22.1475 47.3086 21.9424C47.4225 21.7373 47.5023 21.5003 47.5479 21.2314C47.598 20.9626 47.623 20.6732 47.623 20.3633ZM52.9004 13.5V24H50.9248V13.5H52.9004ZM58.5195 22.332V19.0371C58.5195 18.8001 58.4808 18.5973 58.4033 18.4287C58.3258 18.2555 58.2051 18.1211 58.041 18.0254C57.8815 17.9297 57.6742 17.8818 57.4189 17.8818C57.2002 17.8818 57.0111 17.9206 56.8516 17.998C56.6921 18.071 56.569 18.1781 56.4824 18.3193C56.3958 18.4561 56.3525 18.6178 56.3525 18.8047H54.3838C54.3838 18.4902 54.4567 18.1917 54.6025 17.9092C54.7484 17.6266 54.9603 17.3783 55.2383 17.1641C55.5163 16.9453 55.8467 16.7744 56.2295 16.6514C56.6169 16.5283 57.0498 16.4668 57.5283 16.4668C58.1025 16.4668 58.613 16.5625 59.0596 16.7539C59.5062 16.9453 59.8571 17.2324 60.1123 17.6152C60.3721 17.998 60.502 18.4766 60.502 19.0508V22.2158C60.502 22.6214 60.527 22.9541 60.5771 23.2139C60.6273 23.4691 60.7002 23.6924 60.7959 23.8838V24H58.8066C58.7109 23.7995 58.638 23.5488 58.5879 23.248C58.5423 22.9427 58.5195 22.6374 58.5195 22.332ZM58.7793 19.4951L58.793 20.6094H57.6924C57.4326 20.6094 57.207 20.639 57.0156 20.6982C56.8242 20.7575 56.667 20.8418 56.5439 20.9512C56.4209 21.056 56.3298 21.179 56.2705 21.3203C56.2158 21.4616 56.1885 21.6165 56.1885 21.7852C56.1885 21.9538 56.2272 22.1064 56.3047 22.2432C56.3822 22.3753 56.4938 22.4801 56.6396 22.5576C56.7855 22.6305 56.9564 22.667 57.1523 22.667C57.4486 22.667 57.7061 22.6077 57.9248 22.4893C58.1436 22.3708 58.3122 22.2249 58.4307 22.0518C58.5537 21.8786 58.6175 21.7145 58.6221 21.5596L59.1416 22.3936C59.0687 22.5804 58.9684 22.7741 58.8408 22.9746C58.7178 23.1751 58.5605 23.3643 58.3691 23.542C58.1777 23.7152 57.9476 23.8587 57.6787 23.9727C57.4098 24.082 57.0908 24.1367 56.7217 24.1367C56.2523 24.1367 55.8262 24.0433 55.4434 23.8564C55.0651 23.665 54.7643 23.403 54.541 23.0703C54.3223 22.7331 54.2129 22.3503 54.2129 21.9219C54.2129 21.5345 54.2858 21.1904 54.4316 20.8896C54.5775 20.5889 54.7917 20.3359 55.0742 20.1309C55.3613 19.9212 55.7191 19.764 56.1475 19.6592C56.5758 19.5498 57.0726 19.4951 57.6377 19.4951H58.7793ZM63.9473 18.1826V24H61.9785V16.6035H63.8242L63.9473 18.1826ZM63.6602 20.042H63.127C63.127 19.4951 63.1976 19.0029 63.3389 18.5654C63.4801 18.1234 63.6784 17.7474 63.9336 17.4375C64.1888 17.123 64.4919 16.8838 64.8428 16.7197C65.1982 16.5511 65.5947 16.4668 66.0322 16.4668C66.3786 16.4668 66.6953 16.5169 66.9824 16.6172C67.2695 16.7174 67.5156 16.877 67.7207 17.0957C67.9303 17.3145 68.0898 17.6038 68.1992 17.9639C68.3132 18.3239 68.3701 18.7637 68.3701 19.2832V24H66.3877V19.2764C66.3877 18.9482 66.3421 18.693 66.251 18.5107C66.1598 18.3285 66.0254 18.2008 65.8477 18.1279C65.6745 18.0505 65.4603 18.0117 65.2051 18.0117C64.9408 18.0117 64.7106 18.0641 64.5146 18.1689C64.3232 18.2738 64.1637 18.4196 64.0361 18.6064C63.9131 18.7887 63.8197 19.0029 63.7559 19.249C63.6921 19.4951 63.6602 19.7594 63.6602 20.042Z" fill="#F0EEEE"/>
<path d="M19.3887 37.7871H17.5771L17.5674 36.8936H19.1494C19.4163 36.8936 19.6426 36.8545 19.8281 36.7764C20.0169 36.695 20.1602 36.5794 20.2578 36.4297C20.3555 36.2767 20.4043 36.0928 20.4043 35.8779C20.4043 35.6403 20.3587 35.4466 20.2676 35.2969C20.1764 35.1471 20.0365 35.0381 19.8477 34.9697C19.6621 34.9014 19.4245 34.8672 19.1348 34.8672H17.9482V41H16.7227V33.8906H19.1348C19.5254 33.8906 19.8737 33.9281 20.1797 34.0029C20.4889 34.0778 20.751 34.195 20.9658 34.3545C21.1839 34.5107 21.3483 34.7093 21.459 34.9502C21.5729 35.1911 21.6299 35.4775 21.6299 35.8096C21.6299 36.1025 21.5599 36.3711 21.4199 36.6152C21.2799 36.8561 21.0732 37.0531 20.7998 37.2061C20.5264 37.359 20.1862 37.4502 19.7793 37.4795L19.3887 37.7871ZM19.335 41H17.1914L17.7432 40.0283H19.335C19.6117 40.0283 19.8428 39.9827 20.0283 39.8916C20.2139 39.7972 20.3522 39.6686 20.4434 39.5059C20.5378 39.3398 20.585 39.1462 20.585 38.9248C20.585 38.6937 20.5443 38.4935 20.4629 38.3242C20.3815 38.1517 20.2529 38.0199 20.0771 37.9287C19.9014 37.8343 19.6719 37.7871 19.3887 37.7871H18.0117L18.0215 36.8936H19.8135L20.0918 37.2305C20.4824 37.2435 20.8031 37.3298 21.0537 37.4893C21.3076 37.6488 21.4964 37.8555 21.6201 38.1094C21.7438 38.3633 21.8057 38.6367 21.8057 38.9297C21.8057 39.3822 21.7064 39.7614 21.5078 40.0674C21.3125 40.3734 21.0309 40.6061 20.6631 40.7656C20.2952 40.9219 19.8525 41 19.335 41ZM26.1025 39.7549V35.7168H27.2842V41H26.1709L26.1025 39.7549ZM26.2686 38.6562L26.6641 38.6465C26.6641 39.0013 26.625 39.3285 26.5469 39.6279C26.4688 39.9242 26.3483 40.1829 26.1855 40.4043C26.0228 40.6224 25.8145 40.7933 25.5605 40.917C25.3066 41.0374 25.0023 41.0977 24.6475 41.0977C24.3903 41.0977 24.1543 41.0602 23.9395 40.9854C23.7246 40.9105 23.5391 40.7949 23.3828 40.6387C23.2298 40.4824 23.111 40.279 23.0264 40.0283C22.9417 39.7777 22.8994 39.4782 22.8994 39.1299V35.7168H24.0762V39.1396C24.0762 39.3317 24.099 39.4928 24.1445 39.623C24.1901 39.75 24.252 39.8525 24.3301 39.9307C24.4082 40.0088 24.4993 40.0641 24.6035 40.0967C24.7077 40.1292 24.8184 40.1455 24.9355 40.1455C25.2708 40.1455 25.5345 40.0804 25.7266 39.9502C25.9219 39.8167 26.0602 39.6377 26.1416 39.4131C26.2262 39.1885 26.2686 38.9362 26.2686 38.6562ZM32.1621 36.7324V43.0312H30.9854V35.7168H32.0693L32.1621 36.7324ZM35.6045 38.3096V38.4121C35.6045 38.7962 35.5589 39.1527 35.4678 39.4814C35.3799 39.807 35.248 40.0918 35.0723 40.3359C34.8997 40.5768 34.6865 40.764 34.4326 40.8975C34.1787 41.0309 33.8857 41.0977 33.5537 41.0977C33.2249 41.0977 32.9368 41.0374 32.6895 40.917C32.4453 40.7933 32.2386 40.6191 32.0693 40.3945C31.9001 40.1699 31.7633 39.9062 31.6592 39.6035C31.5583 39.2975 31.4867 38.9622 31.4443 38.5977V38.2021C31.4867 37.8148 31.5583 37.4632 31.6592 37.1475C31.7633 36.8317 31.9001 36.5599 32.0693 36.332C32.2386 36.1042 32.4453 35.9284 32.6895 35.8047C32.9336 35.681 33.2184 35.6191 33.5439 35.6191C33.876 35.6191 34.1706 35.6842 34.4277 35.8145C34.6849 35.9414 34.9014 36.1237 35.0771 36.3613C35.2529 36.5957 35.3848 36.8789 35.4727 37.2109C35.5605 37.5397 35.6045 37.9059 35.6045 38.3096ZM34.4277 38.4121V38.3096C34.4277 38.0654 34.4049 37.8392 34.3594 37.6309C34.3138 37.4193 34.2422 37.2337 34.1445 37.0742C34.0469 36.9147 33.9215 36.791 33.7686 36.7031C33.6188 36.612 33.4382 36.5664 33.2266 36.5664C33.0182 36.5664 32.8392 36.6022 32.6895 36.6738C32.5397 36.7422 32.4144 36.8382 32.3135 36.9619C32.2126 37.0856 32.1344 37.2305 32.0791 37.3965C32.0238 37.5592 31.9847 37.7367 31.9619 37.9287V38.876C32.001 39.1104 32.0677 39.3252 32.1621 39.5205C32.2565 39.7158 32.39 39.8721 32.5625 39.9893C32.7383 40.1032 32.9629 40.1602 33.2363 40.1602C33.4479 40.1602 33.6286 40.1146 33.7783 40.0234C33.9281 39.9323 34.0501 39.807 34.1445 39.6475C34.2422 39.4847 34.3138 39.2975 34.3594 39.0859C34.4049 38.8743 34.4277 38.6497 34.4277 38.4121ZM37.8652 33.5V41H36.6836V33.5H37.8652ZM42.1328 39.9404V37.4209C42.1328 37.2321 42.0986 37.0693 42.0303 36.9326C41.9619 36.7959 41.8577 36.6901 41.7178 36.6152C41.5811 36.5404 41.4085 36.5029 41.2002 36.5029C41.0081 36.5029 40.8421 36.5355 40.7021 36.6006C40.5622 36.6657 40.4531 36.7536 40.375 36.8643C40.2969 36.9749 40.2578 37.1003 40.2578 37.2402H39.0859C39.0859 37.0319 39.1364 36.8301 39.2373 36.6348C39.3382 36.4395 39.4847 36.2653 39.6768 36.1123C39.8688 35.9593 40.0983 35.8389 40.3652 35.751C40.6322 35.6631 40.9316 35.6191 41.2637 35.6191C41.6608 35.6191 42.0124 35.6859 42.3184 35.8193C42.6276 35.9528 42.8701 36.1546 43.0459 36.4248C43.2249 36.6917 43.3145 37.027 43.3145 37.4307V39.7793C43.3145 40.0202 43.3307 40.2367 43.3633 40.4287C43.3991 40.6175 43.4495 40.7819 43.5146 40.9219V41H42.3086C42.2533 40.873 42.2093 40.7119 42.1768 40.5166C42.1475 40.318 42.1328 40.126 42.1328 39.9404ZM42.3037 37.7871L42.3135 38.5146H41.4688C41.2507 38.5146 41.0586 38.5358 40.8926 38.5781C40.7266 38.6172 40.5882 38.6758 40.4775 38.7539C40.3669 38.832 40.2839 38.9264 40.2285 39.0371C40.1732 39.1478 40.1455 39.2731 40.1455 39.4131C40.1455 39.5531 40.1781 39.6816 40.2432 39.7988C40.3083 39.9128 40.4027 40.0023 40.5264 40.0674C40.6533 40.1325 40.8063 40.165 40.9854 40.165C41.2262 40.165 41.4362 40.1162 41.6152 40.0186C41.7975 39.9176 41.9408 39.7956 42.0449 39.6523C42.1491 39.5059 42.2044 39.3675 42.2109 39.2373L42.5918 39.7598C42.5527 39.8932 42.486 40.0365 42.3916 40.1895C42.2972 40.3424 42.1735 40.4889 42.0205 40.6289C41.8708 40.7656 41.6901 40.8779 41.4785 40.9658C41.2702 41.0537 41.0293 41.0977 40.7559 41.0977C40.4108 41.0977 40.1032 41.0293 39.833 40.8926C39.5628 40.7526 39.3512 40.5654 39.1982 40.3311C39.0452 40.0934 38.9688 39.8249 38.9688 39.5254C38.9688 39.2454 39.0208 38.998 39.125 38.7832C39.2324 38.5651 39.3887 38.3828 39.5938 38.2363C39.8021 38.0898 40.056 37.9792 40.3555 37.9043C40.6549 37.8262 40.9967 37.7871 41.3809 37.7871H42.3037ZM45.7119 36.8447V41H44.5352V35.7168H45.6436L45.7119 36.8447ZM45.502 38.1631L45.1211 38.1582C45.1243 37.7839 45.1764 37.4404 45.2773 37.1279C45.3815 36.8154 45.5247 36.5469 45.707 36.3223C45.8926 36.0977 46.1139 35.9251 46.3711 35.8047C46.6283 35.681 46.9147 35.6191 47.2305 35.6191C47.4844 35.6191 47.7139 35.6549 47.9189 35.7266C48.1273 35.7949 48.3047 35.9072 48.4512 36.0635C48.6009 36.2197 48.7148 36.4232 48.793 36.6738C48.8711 36.9212 48.9102 37.2256 48.9102 37.5869V41H47.7285V37.582C47.7285 37.3281 47.6911 37.1279 47.6162 36.9814C47.5446 36.8317 47.4388 36.7259 47.2988 36.6641C47.1621 36.599 46.9912 36.5664 46.7861 36.5664C46.5843 36.5664 46.4036 36.6087 46.2441 36.6934C46.0846 36.778 45.9495 36.8936 45.8389 37.04C45.7314 37.1865 45.6484 37.3558 45.5898 37.5479C45.5312 37.7399 45.502 37.945 45.502 38.1631ZM55.8193 43.0312V36.7666L55.9561 35.7168H57.0059V43.0312H55.8193ZM52.3867 38.4121V38.3096C52.3867 37.9092 52.4323 37.5446 52.5234 37.2158C52.6146 36.8838 52.7497 36.599 52.9287 36.3613C53.1077 36.1237 53.3258 35.9414 53.583 35.8145C53.8402 35.6842 54.1364 35.6191 54.4717 35.6191C54.7972 35.6191 55.0804 35.681 55.3213 35.8047C55.5654 35.9284 55.7705 36.1058 55.9365 36.3369C56.1058 36.5648 56.2409 36.8366 56.3418 37.1523C56.4427 37.4681 56.516 37.8197 56.5615 38.207V38.5342C56.5192 38.9118 56.4476 39.2568 56.3467 39.5693C56.2458 39.8818 56.1107 40.152 55.9414 40.3799C55.7721 40.6077 55.5654 40.7852 55.3213 40.9121C55.0771 41.0358 54.7907 41.0977 54.4619 41.0977C54.1331 41.0977 53.8402 41.0309 53.583 40.8975C53.3258 40.764 53.1077 40.5768 52.9287 40.3359C52.7529 40.0918 52.6178 39.807 52.5234 39.4814C52.4323 39.1527 52.3867 38.7962 52.3867 38.4121ZM53.5635 38.3096V38.4121C53.5635 38.653 53.5846 38.8792 53.627 39.0908C53.6725 39.2992 53.7441 39.4847 53.8418 39.6475C53.9395 39.807 54.0632 39.9323 54.2129 40.0234C54.3626 40.1146 54.5433 40.1602 54.7549 40.1602C55.0316 40.1602 55.2578 40.0999 55.4336 39.9795C55.6126 39.859 55.7493 39.6979 55.8438 39.4961C55.9414 39.291 56.0098 39.0648 56.0488 38.8174V37.9336C56.026 37.7415 55.9854 37.5625 55.9268 37.3965C55.8682 37.2272 55.7868 37.0807 55.6826 36.957C55.5817 36.8301 55.4548 36.7324 55.3018 36.6641C55.152 36.5924 54.973 36.5566 54.7646 36.5566C54.5531 36.5566 54.3708 36.6022 54.2178 36.6934C54.0648 36.7845 53.9395 36.9115 53.8418 37.0742C53.7474 37.2337 53.6774 37.4193 53.6318 37.6309C53.5863 37.8424 53.5635 38.0687 53.5635 38.3096ZM60.5947 41.0977C60.2041 41.0977 59.8509 41.0342 59.5352 40.9072C59.2227 40.777 58.9557 40.5964 58.7344 40.3652C58.5163 40.1341 58.3486 39.8623 58.2314 39.5498C58.1143 39.2373 58.0557 38.9004 58.0557 38.5391V38.3438C58.0557 37.9303 58.1159 37.556 58.2363 37.2207C58.3568 36.8854 58.5244 36.599 58.7393 36.3613C58.9541 36.1204 59.208 35.9365 59.501 35.8096C59.7939 35.6826 60.1113 35.6191 60.4531 35.6191C60.8307 35.6191 61.1611 35.6826 61.4443 35.8096C61.7275 35.9365 61.9619 36.1156 62.1475 36.3467C62.3363 36.5745 62.4762 36.8464 62.5674 37.1621C62.6618 37.4779 62.709 37.8262 62.709 38.207V38.71H58.627V37.8652H61.5469V37.7725C61.5404 37.5609 61.498 37.3623 61.4199 37.1768C61.3451 36.9912 61.2295 36.8415 61.0732 36.7275C60.917 36.6136 60.7087 36.5566 60.4482 36.5566C60.2529 36.5566 60.0788 36.599 59.9258 36.6836C59.776 36.765 59.6507 36.8838 59.5498 37.04C59.4489 37.1963 59.3708 37.3851 59.3154 37.6064C59.2633 37.8245 59.2373 38.0703 59.2373 38.3438V38.5391C59.2373 38.7702 59.2682 38.985 59.3301 39.1836C59.3952 39.3789 59.4896 39.5498 59.6133 39.6963C59.737 39.8428 59.8867 39.9583 60.0625 40.043C60.2383 40.1243 60.4385 40.165 60.6631 40.165C60.9463 40.165 61.1986 40.1081 61.4199 39.9941C61.6413 39.8802 61.8333 39.7191 61.9961 39.5107L62.6162 40.1113C62.5023 40.2773 62.3542 40.4368 62.1719 40.5898C61.9896 40.7396 61.7666 40.8617 61.5029 40.9561C61.2425 41.0505 60.9398 41.0977 60.5947 41.0977ZM65.0918 40.4238L66.5273 35.7168H67.7871L65.668 41.8057C65.6191 41.9359 65.5557 42.0775 65.4775 42.2305C65.3994 42.3835 65.2969 42.5283 65.1699 42.665C65.0462 42.805 64.8916 42.9173 64.7061 43.002C64.5205 43.0898 64.2959 43.1338 64.0322 43.1338C63.9281 43.1338 63.8271 43.124 63.7295 43.1045C63.6351 43.0882 63.5456 43.0703 63.4609 43.0508L63.4561 42.1523C63.4886 42.1556 63.5277 42.1589 63.5732 42.1621C63.6221 42.1654 63.6611 42.167 63.6904 42.167C63.8857 42.167 64.0485 42.1426 64.1787 42.0938C64.3089 42.0482 64.4147 41.9733 64.4961 41.8691C64.5807 41.765 64.6523 41.625 64.7109 41.4492L65.0918 40.4238ZM64.2812 35.7168L65.5361 39.6719L65.7461 40.9121L64.9307 41.1221L63.0117 35.7168H64.2812ZM71.6152 39.9062V33.5H72.7969V41H71.7275L71.6152 39.9062ZM68.1777 38.417V38.3145C68.1777 37.9141 68.2249 37.5495 68.3193 37.2207C68.4137 36.8887 68.5505 36.6038 68.7295 36.3662C68.9085 36.1253 69.1266 35.9414 69.3838 35.8145C69.641 35.6842 69.9307 35.6191 70.2529 35.6191C70.5719 35.6191 70.8519 35.681 71.0928 35.8047C71.3337 35.9284 71.5387 36.1058 71.708 36.3369C71.8773 36.5648 72.0124 36.8382 72.1133 37.1572C72.2142 37.473 72.2858 37.8245 72.3281 38.2119V38.5391C72.2858 38.9167 72.2142 39.2617 72.1133 39.5742C72.0124 39.8867 71.8773 40.1569 71.708 40.3848C71.5387 40.6126 71.332 40.7884 71.0879 40.9121C70.847 41.0358 70.5654 41.0977 70.2432 41.0977C69.9242 41.0977 69.6361 41.0309 69.3789 40.8975C69.125 40.764 68.9085 40.5768 68.7295 40.3359C68.5505 40.0951 68.4137 39.8118 68.3193 39.4863C68.2249 39.1576 68.1777 38.8011 68.1777 38.417ZM69.3545 38.3145V38.417C69.3545 38.6579 69.3757 38.8825 69.418 39.0908C69.4635 39.2992 69.5335 39.4831 69.6279 39.6426C69.7223 39.7988 69.8444 39.9225 69.9941 40.0137C70.1471 40.1016 70.3294 40.1455 70.541 40.1455C70.8079 40.1455 71.0277 40.0869 71.2002 39.9697C71.3727 39.8525 71.5078 39.6947 71.6055 39.4961C71.7064 39.2943 71.7747 39.0697 71.8105 38.8223V37.9385C71.791 37.7464 71.7503 37.5674 71.6885 37.4014C71.6299 37.2354 71.5501 37.0905 71.4492 36.9668C71.3483 36.8398 71.223 36.7422 71.0732 36.6738C70.9268 36.6022 70.7526 36.5664 70.5508 36.5664C70.3359 36.5664 70.1536 36.612 70.0039 36.7031C69.8542 36.7943 69.7305 36.9196 69.6328 37.0791C69.5384 37.2386 69.4684 37.4242 69.4229 37.6357C69.3773 37.8473 69.3545 38.0736 69.3545 38.3145ZM75.2871 35.7168V41H74.1055V35.7168H75.2871ZM74.0273 34.3301C74.0273 34.151 74.0859 34.0029 74.2031 33.8857C74.3236 33.7653 74.4896 33.7051 74.7012 33.7051C74.9095 33.7051 75.0739 33.7653 75.1943 33.8857C75.3148 34.0029 75.375 34.151 75.375 34.3301C75.375 34.5059 75.3148 34.6523 75.1943 34.7695C75.0739 34.8867 74.9095 34.9453 74.7012 34.9453C74.4896 34.9453 74.3236 34.8867 74.2031 34.7695C74.0859 34.6523 74.0273 34.5059 74.0273 34.3301ZM78.1094 40.4238L79.5449 35.7168H80.8047L78.6855 41.8057C78.6367 41.9359 78.5732 42.0775 78.4951 42.2305C78.417 42.3835 78.3145 42.5283 78.1875 42.665C78.0638 42.805 77.9092 42.9173 77.7236 43.002C77.5381 43.0898 77.3135 43.1338 77.0498 43.1338C76.9456 43.1338 76.8447 43.124 76.7471 43.1045C76.6527 43.0882 76.5632 43.0703 76.4785 43.0508L76.4736 42.1523C76.5062 42.1556 76.5452 42.1589 76.5908 42.1621C76.6396 42.1654 76.6787 42.167 76.708 42.167C76.9033 42.167 77.0661 42.1426 77.1963 42.0938C77.3265 42.0482 77.4323 41.9733 77.5137 41.8691C77.5983 41.765 77.6699 41.625 77.7285 41.4492L78.1094 40.4238ZM77.2988 35.7168L78.5537 39.6719L78.7637 40.9121L77.9482 41.1221L76.0293 35.7168H77.2988ZM83.0117 40.4238L84.4473 35.7168H85.707L83.5879 41.8057C83.5391 41.9359 83.4756 42.0775 83.3975 42.2305C83.3193 42.3835 83.2168 42.5283 83.0898 42.665C82.9661 42.805 82.8115 42.9173 82.626 43.002C82.4404 43.0898 82.2158 43.1338 81.9521 43.1338C81.848 43.1338 81.7471 43.124 81.6494 43.1045C81.555 43.0882 81.4655 43.0703 81.3809 43.0508L81.376 42.1523C81.4085 42.1556 81.4476 42.1589 81.4932 42.1621C81.542 42.1654 81.5811 42.167 81.6104 42.167C81.8057 42.167 81.9684 42.1426 82.0986 42.0938C82.2288 42.0482 82.3346 41.9733 82.416 41.8691C82.5007 41.765 82.5723 41.625 82.6309 41.4492L83.0117 40.4238ZM82.2012 35.7168L83.4561 39.6719L83.666 40.9121L82.8506 41.1221L80.9316 35.7168H82.2012ZM89.2812 39.9404V37.4209C89.2812 37.2321 89.2471 37.0693 89.1787 36.9326C89.1104 36.7959 89.0062 36.6901 88.8662 36.6152C88.7295 36.5404 88.557 36.5029 88.3486 36.5029C88.1566 36.5029 87.9906 36.5355 87.8506 36.6006C87.7106 36.6657 87.6016 36.7536 87.5234 36.8643C87.4453 36.9749 87.4062 37.1003 87.4062 37.2402H86.2344C86.2344 37.0319 86.2848 36.8301 86.3857 36.6348C86.4867 36.4395 86.6331 36.2653 86.8252 36.1123C87.0173 35.9593 87.2467 35.8389 87.5137 35.751C87.7806 35.6631 88.0801 35.6191 88.4121 35.6191C88.8092 35.6191 89.1608 35.6859 89.4668 35.8193C89.776 35.9528 90.0186 36.1546 90.1943 36.4248C90.3734 36.6917 90.4629 37.027 90.4629 37.4307V39.7793C90.4629 40.0202 90.4792 40.2367 90.5117 40.4287C90.5475 40.6175 90.598 40.7819 90.6631 40.9219V41H89.457C89.4017 40.873 89.3577 40.7119 89.3252 40.5166C89.2959 40.318 89.2812 40.126 89.2812 39.9404ZM89.4521 37.7871L89.4619 38.5146H88.6172C88.3991 38.5146 88.207 38.5358 88.041 38.5781C87.875 38.6172 87.7367 38.6758 87.626 38.7539C87.5153 38.832 87.4323 38.9264 87.377 39.0371C87.3216 39.1478 87.2939 39.2731 87.2939 39.4131C87.2939 39.5531 87.3265 39.6816 87.3916 39.7988C87.4567 39.9128 87.5511 40.0023 87.6748 40.0674C87.8018 40.1325 87.9548 40.165 88.1338 40.165C88.3747 40.165 88.5846 40.1162 88.7637 40.0186C88.946 39.9176 89.0892 39.7956 89.1934 39.6523C89.2975 39.5059 89.3529 39.3675 89.3594 39.2373L89.7402 39.7598C89.7012 39.8932 89.6344 40.0365 89.54 40.1895C89.4456 40.3424 89.3219 40.4889 89.1689 40.6289C89.0192 40.7656 88.8385 40.8779 88.627 40.9658C88.4186 41.0537 88.1777 41.0977 87.9043 41.0977C87.5592 41.0977 87.2516 41.0293 86.9814 40.8926C86.7113 40.7526 86.4997 40.5654 86.3467 40.3311C86.1937 40.0934 86.1172 39.8249 86.1172 39.5254C86.1172 39.2454 86.1693 38.998 86.2734 38.7832C86.3809 38.5651 86.5371 38.3828 86.7422 38.2363C86.9505 38.0898 87.2044 37.9792 87.5039 37.9043C87.8034 37.8262 88.1452 37.7871 88.5293 37.7871H89.4521ZM94.1152 35.7168V36.5762H91.1367V35.7168H94.1152ZM91.9961 34.4229H93.1729V39.54C93.1729 39.7028 93.1956 39.8281 93.2412 39.916C93.29 40.0007 93.3568 40.0576 93.4414 40.0869C93.526 40.1162 93.6253 40.1309 93.7393 40.1309C93.8206 40.1309 93.8988 40.126 93.9736 40.1162C94.0485 40.1064 94.1087 40.0967 94.1543 40.0869L94.1592 40.9854C94.0615 41.0146 93.9476 41.0407 93.8174 41.0635C93.6904 41.0863 93.5439 41.0977 93.3779 41.0977C93.1077 41.0977 92.8685 41.0505 92.6602 40.9561C92.4518 40.8584 92.2891 40.7005 92.1719 40.4824C92.0547 40.2643 91.9961 39.9746 91.9961 39.6133V34.4229ZM99.8428 41.0977C99.4521 41.0977 99.099 41.0342 98.7832 40.9072C98.4707 40.777 98.2038 40.5964 97.9824 40.3652C97.7643 40.1341 97.5967 39.8623 97.4795 39.5498C97.3623 39.2373 97.3037 38.9004 97.3037 38.5391V38.3438C97.3037 37.9303 97.3639 37.556 97.4844 37.2207C97.6048 36.8854 97.7725 36.599 97.9873 36.3613C98.2021 36.1204 98.4561 35.9365 98.749 35.8096C99.042 35.6826 99.3594 35.6191 99.7012 35.6191C100.079 35.6191 100.409 35.6826 100.692 35.8096C100.976 35.9365 101.21 36.1156 101.396 36.3467C101.584 36.5745 101.724 36.8464 101.815 37.1621C101.91 37.4779 101.957 37.8262 101.957 38.207V38.71H97.875V37.8652H100.795V37.7725C100.788 37.5609 100.746 37.3623 100.668 37.1768C100.593 36.9912 100.478 36.8415 100.321 36.7275C100.165 36.6136 99.9567 36.5566 99.6963 36.5566C99.501 36.5566 99.3268 36.599 99.1738 36.6836C99.0241 36.765 98.8988 36.8838 98.7979 37.04C98.6969 37.1963 98.6188 37.3851 98.5635 37.6064C98.5114 37.8245 98.4854 38.0703 98.4854 38.3438V38.5391C98.4854 38.7702 98.5163 38.985 98.5781 39.1836C98.6432 39.3789 98.7376 39.5498 98.8613 39.6963C98.985 39.8428 99.1348 39.9583 99.3105 40.043C99.4863 40.1243 99.6865 40.165 99.9111 40.165C100.194 40.165 100.447 40.1081 100.668 39.9941C100.889 39.8802 101.081 39.7191 101.244 39.5107L101.864 40.1113C101.75 40.2773 101.602 40.4368 101.42 40.5898C101.238 40.7396 101.015 40.8617 100.751 40.9561C100.491 41.0505 100.188 41.0977 99.8428 41.0977ZM104.037 33.5V41H102.865V33.5H104.037ZM103.832 38.1631L103.451 38.1582C103.454 37.7936 103.505 37.4567 103.603 37.1475C103.703 36.8382 103.843 36.5697 104.022 36.3418C104.205 36.1107 104.423 35.9333 104.677 35.8096C104.931 35.6826 105.212 35.6191 105.521 35.6191C105.782 35.6191 106.016 35.6549 106.225 35.7266C106.436 35.7982 106.618 35.9137 106.771 36.0732C106.924 36.2295 107.04 36.4346 107.118 36.6885C107.2 36.9391 107.24 37.2451 107.24 37.6064V41H106.059V37.5967C106.059 37.3428 106.021 37.141 105.946 36.9912C105.875 36.8415 105.769 36.734 105.629 36.6689C105.489 36.6006 105.318 36.5664 105.116 36.5664C104.905 36.5664 104.717 36.6087 104.555 36.6934C104.395 36.778 104.262 36.8936 104.154 37.04C104.047 37.1865 103.965 37.3558 103.91 37.5479C103.858 37.7399 103.832 37.945 103.832 38.1631ZM110.854 35.7168V36.5762H107.875V35.7168H110.854ZM108.734 34.4229H109.911V39.54C109.911 39.7028 109.934 39.8281 109.979 39.916C110.028 40.0007 110.095 40.0576 110.18 40.0869C110.264 40.1162 110.364 40.1309 110.478 40.1309C110.559 40.1309 110.637 40.126 110.712 40.1162C110.787 40.1064 110.847 40.0967 110.893 40.0869L110.897 40.9854C110.8 41.0146 110.686 41.0407 110.556 41.0635C110.429 41.0863 110.282 41.0977 110.116 41.0977C109.846 41.0977 109.607 41.0505 109.398 40.9561C109.19 40.8584 109.027 40.7005 108.91 40.4824C108.793 40.2643 108.734 39.9746 108.734 39.6133V34.4229ZM113.021 35.7168V41H111.84V35.7168H113.021ZM111.762 34.3301C111.762 34.151 111.82 34.0029 111.938 33.8857C112.058 33.7653 112.224 33.7051 112.436 33.7051C112.644 33.7051 112.808 33.7653 112.929 33.8857C113.049 34.0029 113.109 34.151 113.109 34.3301C113.109 34.5059 113.049 34.6523 112.929 34.7695C112.808 34.8867 112.644 34.9453 112.436 34.9453C112.224 34.9453 112.058 34.8867 111.938 34.7695C111.82 34.6523 111.762 34.5059 111.762 34.3301ZM115.844 40.4238L117.279 35.7168H118.539L116.42 41.8057C116.371 41.9359 116.308 42.0775 116.229 42.2305C116.151 42.3835 116.049 42.5283 115.922 42.665C115.798 42.805 115.644 42.9173 115.458 43.002C115.272 43.0898 115.048 43.1338 114.784 43.1338C114.68 43.1338 114.579 43.124 114.481 43.1045C114.387 43.0882 114.298 43.0703 114.213 43.0508L114.208 42.1523C114.241 42.1556 114.28 42.1589 114.325 42.1621C114.374 42.1654 114.413 42.167 114.442 42.167C114.638 42.167 114.8 42.1426 114.931 42.0938C115.061 42.0482 115.167 41.9733 115.248 41.8691C115.333 41.765 115.404 41.625 115.463 41.4492L115.844 40.4238ZM115.033 35.7168L116.288 39.6719L116.498 40.9121L115.683 41.1221L113.764 35.7168H115.033ZM120.746 40.4238L122.182 35.7168H123.441L121.322 41.8057C121.273 41.9359 121.21 42.0775 121.132 42.2305C121.054 42.3835 120.951 42.5283 120.824 42.665C120.701 42.805 120.546 42.9173 120.36 43.002C120.175 43.0898 119.95 43.1338 119.687 43.1338C119.582 43.1338 119.481 43.124 119.384 43.1045C119.289 43.0882 119.2 43.0703 119.115 43.0508L119.11 42.1523C119.143 42.1556 119.182 42.1589 119.228 42.1621C119.276 42.1654 119.315 42.167 119.345 42.167C119.54 42.167 119.703 42.1426 119.833 42.0938C119.963 42.0482 120.069 41.9733 120.15 41.8691C120.235 41.765 120.307 41.625 120.365 41.4492L120.746 40.4238ZM119.936 35.7168L121.19 39.6719L121.4 40.9121L120.585 41.1221L118.666 35.7168H119.936ZM127.016 39.9404V37.4209C127.016 37.2321 126.981 37.0693 126.913 36.9326C126.845 36.7959 126.741 36.6901 126.601 36.6152C126.464 36.5404 126.291 36.5029 126.083 36.5029C125.891 36.5029 125.725 36.5355 125.585 36.6006C125.445 36.6657 125.336 36.7536 125.258 36.8643C125.18 36.9749 125.141 37.1003 125.141 37.2402H123.969C123.969 37.0319 124.019 36.8301 124.12 36.6348C124.221 36.4395 124.368 36.2653 124.56 36.1123C124.752 35.9593 124.981 35.8389 125.248 35.751C125.515 35.6631 125.814 35.6191 126.146 35.6191C126.544 35.6191 126.895 35.6859 127.201 35.8193C127.51 35.9528 127.753 36.1546 127.929 36.4248C128.108 36.6917 128.197 37.027 128.197 37.4307V39.7793C128.197 40.0202 128.214 40.2367 128.246 40.4287C128.282 40.6175 128.332 40.7819 128.397 40.9219V41H127.191C127.136 40.873 127.092 40.7119 127.06 40.5166C127.03 40.318 127.016 40.126 127.016 39.9404ZM127.187 37.7871L127.196 38.5146H126.352C126.133 38.5146 125.941 38.5358 125.775 38.5781C125.609 38.6172 125.471 38.6758 125.36 38.7539C125.25 38.832 125.167 38.9264 125.111 39.0371C125.056 39.1478 125.028 39.2731 125.028 39.4131C125.028 39.5531 125.061 39.6816 125.126 39.7988C125.191 39.9128 125.285 40.0023 125.409 40.0674C125.536 40.1325 125.689 40.165 125.868 40.165C126.109 40.165 126.319 40.1162 126.498 40.0186C126.68 39.9176 126.824 39.7956 126.928 39.6523C127.032 39.5059 127.087 39.3675 127.094 39.2373L127.475 39.7598C127.436 39.8932 127.369 40.0365 127.274 40.1895C127.18 40.3424 127.056 40.4889 126.903 40.6289C126.754 40.7656 126.573 40.8779 126.361 40.9658C126.153 41.0537 125.912 41.0977 125.639 41.0977C125.294 41.0977 124.986 41.0293 124.716 40.8926C124.446 40.7526 124.234 40.5654 124.081 40.3311C123.928 40.0934 123.852 39.8249 123.852 39.5254C123.852 39.2454 123.904 38.998 124.008 38.7832C124.115 38.5651 124.271 38.3828 124.477 38.2363C124.685 38.0898 124.939 37.9792 125.238 37.9043C125.538 37.8262 125.88 37.7871 126.264 37.7871H127.187ZM131.586 40.1602C131.778 40.1602 131.951 40.1227 132.104 40.0479C132.26 39.9697 132.385 39.8623 132.479 39.7256C132.577 39.5889 132.631 39.431 132.641 39.252H133.749C133.743 39.5938 133.642 39.9046 133.446 40.1846C133.251 40.4645 132.992 40.6875 132.67 40.8535C132.348 41.0163 131.991 41.0977 131.601 41.0977C131.197 41.0977 130.845 41.0293 130.546 40.8926C130.246 40.7526 129.997 40.5605 129.799 40.3164C129.6 40.0723 129.451 39.7907 129.35 39.4717C129.252 39.1527 129.203 38.8109 129.203 38.4463V38.2754C129.203 37.9108 129.252 37.569 129.35 37.25C129.451 36.9277 129.6 36.6445 129.799 36.4004C129.997 36.1562 130.246 35.9658 130.546 35.8291C130.845 35.6891 131.195 35.6191 131.596 35.6191C132.019 35.6191 132.39 35.7038 132.709 35.873C133.028 36.0391 133.279 36.2718 133.461 36.5713C133.646 36.8675 133.743 37.2126 133.749 37.6064H132.641C132.631 37.4111 132.582 37.2354 132.494 37.0791C132.41 36.9196 132.289 36.7926 132.133 36.6982C131.98 36.6038 131.796 36.5566 131.581 36.5566C131.343 36.5566 131.146 36.6055 130.99 36.7031C130.834 36.7975 130.712 36.9277 130.624 37.0938C130.536 37.2565 130.473 37.4404 130.434 37.6455C130.398 37.8473 130.38 38.0573 130.38 38.2754V38.4463C130.38 38.6644 130.398 38.876 130.434 39.0811C130.469 39.2861 130.531 39.4701 130.619 39.6328C130.71 39.7923 130.834 39.9209 130.99 40.0186C131.146 40.113 131.345 40.1602 131.586 40.1602ZM136.918 38.417V38.3047C136.918 37.9238 136.973 37.5706 137.084 37.2451C137.195 36.9163 137.354 36.6315 137.562 36.3906C137.774 36.1465 138.031 35.9577 138.334 35.8242C138.64 35.6875 138.985 35.6191 139.369 35.6191C139.757 35.6191 140.102 35.6875 140.404 35.8242C140.71 35.9577 140.969 36.1465 141.181 36.3906C141.392 36.6315 141.553 36.9163 141.664 37.2451C141.775 37.5706 141.83 37.9238 141.83 38.3047V38.417C141.83 38.7979 141.775 39.151 141.664 39.4766C141.553 39.8021 141.392 40.0869 141.181 40.3311C140.969 40.5719 140.712 40.7607 140.409 40.8975C140.106 41.0309 139.763 41.0977 139.379 41.0977C138.992 41.0977 138.645 41.0309 138.339 40.8975C138.036 40.7607 137.779 40.5719 137.567 40.3311C137.356 40.0869 137.195 39.8021 137.084 39.4766C136.973 39.151 136.918 38.7979 136.918 38.417ZM138.095 38.3047V38.417C138.095 38.6546 138.119 38.8792 138.168 39.0908C138.217 39.3024 138.293 39.488 138.397 39.6475C138.502 39.807 138.635 39.9323 138.798 40.0234C138.961 40.1146 139.154 40.1602 139.379 40.1602C139.597 40.1602 139.786 40.1146 139.945 40.0234C140.108 39.9323 140.242 39.807 140.346 39.6475C140.45 39.488 140.526 39.3024 140.575 39.0908C140.627 38.8792 140.653 38.6546 140.653 38.417V38.3047C140.653 38.0703 140.627 37.849 140.575 37.6406C140.526 37.429 140.448 37.2419 140.341 37.0791C140.237 36.9163 140.103 36.7894 139.94 36.6982C139.781 36.6038 139.59 36.5566 139.369 36.5566C139.148 36.5566 138.956 36.6038 138.793 36.6982C138.633 36.7894 138.502 36.9163 138.397 37.0791C138.293 37.2419 138.217 37.429 138.168 37.6406C138.119 37.849 138.095 38.0703 138.095 38.3047ZM144.076 33.5V41H142.895V33.5H144.076ZM146.542 36.791V41H145.365V35.7168H146.474L146.542 36.791ZM146.352 38.1631L145.951 38.1582C145.951 37.7936 145.997 37.4567 146.088 37.1475C146.179 36.8382 146.312 36.5697 146.488 36.3418C146.664 36.1107 146.882 35.9333 147.143 35.8096C147.406 35.6826 147.711 35.6191 148.056 35.6191C148.297 35.6191 148.516 35.6549 148.715 35.7266C148.917 35.7949 149.091 35.904 149.237 36.0537C149.387 36.2035 149.501 36.3955 149.579 36.6299C149.66 36.8643 149.701 37.1475 149.701 37.4795V41H148.524V37.582C148.524 37.3249 148.485 37.123 148.407 36.9766C148.332 36.8301 148.223 36.7259 148.08 36.6641C147.94 36.599 147.772 36.5664 147.577 36.5664C147.356 36.5664 147.167 36.6087 147.011 36.6934C146.858 36.778 146.732 36.8936 146.635 37.04C146.537 37.1865 146.465 37.3558 146.42 37.5479C146.374 37.7399 146.352 37.945 146.352 38.1631ZM149.628 37.8506L149.076 37.9727C149.076 37.6536 149.12 37.3525 149.208 37.0693C149.299 36.7829 149.431 36.5322 149.604 36.3174C149.779 36.0993 149.996 35.9284 150.253 35.8047C150.51 35.681 150.805 35.6191 151.137 35.6191C151.407 35.6191 151.648 35.6566 151.859 35.7314C152.074 35.8031 152.257 35.917 152.406 36.0732C152.556 36.2295 152.67 36.4329 152.748 36.6836C152.826 36.931 152.865 37.2305 152.865 37.582V41H151.684V37.5771C151.684 37.3102 151.645 37.1035 151.566 36.957C151.492 36.8105 151.384 36.7096 151.244 36.6543C151.104 36.5957 150.937 36.5664 150.741 36.5664C150.559 36.5664 150.398 36.6006 150.258 36.6689C150.121 36.734 150.006 36.8268 149.911 36.9473C149.817 37.0645 149.745 37.1995 149.696 37.3525C149.651 37.5055 149.628 37.6715 149.628 37.8506ZM157.055 39.9404V37.4209C157.055 37.2321 157.021 37.0693 156.952 36.9326C156.884 36.7959 156.78 36.6901 156.64 36.6152C156.503 36.5404 156.33 36.5029 156.122 36.5029C155.93 36.5029 155.764 36.5355 155.624 36.6006C155.484 36.6657 155.375 36.7536 155.297 36.8643C155.219 36.9749 155.18 37.1003 155.18 37.2402H154.008C154.008 37.0319 154.058 36.8301 154.159 36.6348C154.26 36.4395 154.407 36.2653 154.599 36.1123C154.791 35.9593 155.02 35.8389 155.287 35.751C155.554 35.6631 155.854 35.6191 156.186 35.6191C156.583 35.6191 156.934 35.6859 157.24 35.8193C157.549 35.9528 157.792 36.1546 157.968 36.4248C158.147 36.6917 158.236 37.027 158.236 37.4307V39.7793C158.236 40.0202 158.253 40.2367 158.285 40.4287C158.321 40.6175 158.371 40.7819 158.437 40.9219V41H157.23C157.175 40.873 157.131 40.7119 157.099 40.5166C157.069 40.318 157.055 40.126 157.055 39.9404ZM157.226 37.7871L157.235 38.5146H156.391C156.173 38.5146 155.98 38.5358 155.814 38.5781C155.648 38.6172 155.51 38.6758 155.399 38.7539C155.289 38.832 155.206 38.9264 155.15 39.0371C155.095 39.1478 155.067 39.2731 155.067 39.4131C155.067 39.5531 155.1 39.6816 155.165 39.7988C155.23 39.9128 155.325 40.0023 155.448 40.0674C155.575 40.1325 155.728 40.165 155.907 40.165C156.148 40.165 156.358 40.1162 156.537 40.0186C156.719 39.9176 156.863 39.7956 156.967 39.6523C157.071 39.5059 157.126 39.3675 157.133 39.2373L157.514 39.7598C157.475 39.8932 157.408 40.0365 157.313 40.1895C157.219 40.3424 157.095 40.4889 156.942 40.6289C156.793 40.7656 156.612 40.8779 156.4 40.9658C156.192 41.0537 155.951 41.0977 155.678 41.0977C155.333 41.0977 155.025 41.0293 154.755 40.8926C154.485 40.7526 154.273 40.5654 154.12 40.3311C153.967 40.0934 153.891 39.8249 153.891 39.5254C153.891 39.2454 153.943 38.998 154.047 38.7832C154.154 38.5651 154.311 38.3828 154.516 38.2363C154.724 38.0898 154.978 37.9792 155.277 37.9043C155.577 37.8262 155.919 37.7871 156.303 37.7871H157.226ZM162.689 39.9062V33.5H163.871V41H162.802L162.689 39.9062ZM159.252 38.417V38.3145C159.252 37.9141 159.299 37.5495 159.394 37.2207C159.488 36.8887 159.625 36.6038 159.804 36.3662C159.983 36.1253 160.201 35.9414 160.458 35.8145C160.715 35.6842 161.005 35.6191 161.327 35.6191C161.646 35.6191 161.926 35.681 162.167 35.8047C162.408 35.9284 162.613 36.1058 162.782 36.3369C162.951 36.5648 163.087 36.8382 163.188 37.1572C163.288 37.473 163.36 37.8245 163.402 38.2119V38.5391C163.36 38.9167 163.288 39.2617 163.188 39.5742C163.087 39.8867 162.951 40.1569 162.782 40.3848C162.613 40.6126 162.406 40.7884 162.162 40.9121C161.921 41.0358 161.64 41.0977 161.317 41.0977C160.998 41.0977 160.71 41.0309 160.453 40.8975C160.199 40.764 159.983 40.5768 159.804 40.3359C159.625 40.0951 159.488 39.8118 159.394 39.4863C159.299 39.1576 159.252 38.8011 159.252 38.417ZM160.429 38.3145V38.417C160.429 38.6579 160.45 38.8825 160.492 39.0908C160.538 39.2992 160.608 39.4831 160.702 39.6426C160.797 39.7988 160.919 39.9225 161.068 40.0137C161.221 40.1016 161.404 40.1455 161.615 40.1455C161.882 40.1455 162.102 40.0869 162.274 39.9697C162.447 39.8525 162.582 39.6947 162.68 39.4961C162.781 39.2943 162.849 39.0697 162.885 38.8223V37.9385C162.865 37.7464 162.825 37.5674 162.763 37.4014C162.704 37.2354 162.624 37.0905 162.523 36.9668C162.423 36.8398 162.297 36.7422 162.147 36.6738C162.001 36.6022 161.827 36.5664 161.625 36.5664C161.41 36.5664 161.228 36.612 161.078 36.7031C160.928 36.7943 160.805 36.9196 160.707 37.0791C160.613 37.2386 160.543 37.4242 160.497 37.6357C160.451 37.8473 160.429 38.0736 160.429 38.3145ZM168.08 39.9404V37.4209C168.08 37.2321 168.046 37.0693 167.978 36.9326C167.909 36.7959 167.805 36.6901 167.665 36.6152C167.528 36.5404 167.356 36.5029 167.147 36.5029C166.955 36.5029 166.789 36.5355 166.649 36.6006C166.509 36.6657 166.4 36.7536 166.322 36.8643C166.244 36.9749 166.205 37.1003 166.205 37.2402H165.033C165.033 37.0319 165.084 36.8301 165.185 36.6348C165.285 36.4395 165.432 36.2653 165.624 36.1123C165.816 35.9593 166.046 35.8389 166.312 35.751C166.579 35.6631 166.879 35.6191 167.211 35.6191C167.608 35.6191 167.96 35.6859 168.266 35.8193C168.575 35.9528 168.817 36.1546 168.993 36.4248C169.172 36.6917 169.262 37.027 169.262 37.4307V39.7793C169.262 40.0202 169.278 40.2367 169.311 40.4287C169.346 40.6175 169.397 40.7819 169.462 40.9219V41H168.256C168.201 40.873 168.157 40.7119 168.124 40.5166C168.095 40.318 168.08 40.126 168.08 39.9404ZM168.251 37.7871L168.261 38.5146H167.416C167.198 38.5146 167.006 38.5358 166.84 38.5781C166.674 38.6172 166.535 38.6758 166.425 38.7539C166.314 38.832 166.231 38.9264 166.176 39.0371C166.12 39.1478 166.093 39.2731 166.093 39.4131C166.093 39.5531 166.125 39.6816 166.19 39.7988C166.256 39.9128 166.35 40.0023 166.474 40.0674C166.601 40.1325 166.754 40.165 166.933 40.165C167.174 40.165 167.383 40.1162 167.562 40.0186C167.745 39.9176 167.888 39.7956 167.992 39.6523C168.096 39.5059 168.152 39.3675 168.158 39.2373L168.539 39.7598C168.5 39.8932 168.433 40.0365 168.339 40.1895C168.244 40.3424 168.121 40.4889 167.968 40.6289C167.818 40.7656 167.637 40.8779 167.426 40.9658C167.217 41.0537 166.977 41.0977 166.703 41.0977C166.358 41.0977 166.05 41.0293 165.78 40.8926C165.51 40.7526 165.299 40.5654 165.146 40.3311C164.993 40.0934 164.916 39.8249 164.916 39.5254C164.916 39.2454 164.968 38.998 165.072 38.7832C165.18 38.5651 165.336 38.3828 165.541 38.2363C165.749 38.0898 166.003 37.9792 166.303 37.9043C166.602 37.8262 166.944 37.7871 167.328 37.7871H168.251ZM171.659 36.8447V41H170.482V35.7168H171.591L171.659 36.8447ZM171.449 38.1631L171.068 38.1582C171.072 37.7839 171.124 37.4404 171.225 37.1279C171.329 36.8154 171.472 36.5469 171.654 36.3223C171.84 36.0977 172.061 35.9251 172.318 35.8047C172.576 35.681 172.862 35.6191 173.178 35.6191C173.432 35.6191 173.661 35.6549 173.866 35.7266C174.075 35.7949 174.252 35.9072 174.398 36.0635C174.548 36.2197 174.662 36.4232 174.74 36.6738C174.818 36.9212 174.857 37.2256 174.857 37.5869V41H173.676V37.582C173.676 37.3281 173.638 37.1279 173.563 36.9814C173.492 36.8317 173.386 36.7259 173.246 36.6641C173.109 36.599 172.938 36.5664 172.733 36.5664C172.532 36.5664 172.351 36.6087 172.191 36.6934C172.032 36.778 171.897 36.8936 171.786 37.04C171.679 37.1865 171.596 37.3558 171.537 37.5479C171.479 37.7399 171.449 37.945 171.449 38.1631ZM179.809 35.7168V41H178.627V35.7168H179.809ZM178.549 34.3301C178.549 34.151 178.607 34.0029 178.725 33.8857C178.845 33.7653 179.011 33.7051 179.223 33.7051C179.431 33.7051 179.595 33.7653 179.716 33.8857C179.836 34.0029 179.896 34.151 179.896 34.3301C179.896 34.5059 179.836 34.6523 179.716 34.7695C179.595 34.8867 179.431 34.9453 179.223 34.9453C179.011 34.9453 178.845 34.8867 178.725 34.7695C178.607 34.6523 178.549 34.5059 178.549 34.3301ZM184.062 39.5693C184.062 39.4521 184.032 39.3464 183.974 39.252C183.915 39.1543 183.803 39.0664 183.637 38.9883C183.474 38.9102 183.233 38.8385 182.914 38.7734C182.634 38.7116 182.377 38.6383 182.143 38.5537C181.911 38.4658 181.713 38.36 181.547 38.2363C181.381 38.1126 181.252 37.9661 181.161 37.7969C181.07 37.6276 181.024 37.4323 181.024 37.2109C181.024 36.9961 181.072 36.7926 181.166 36.6006C181.26 36.4085 181.396 36.2393 181.571 36.0928C181.747 35.9463 181.96 35.8307 182.211 35.7461C182.465 35.6615 182.748 35.6191 183.061 35.6191C183.503 35.6191 183.882 35.694 184.198 35.8438C184.517 35.9902 184.761 36.1904 184.931 36.4443C185.1 36.695 185.185 36.9782 185.185 37.2939H184.008C184.008 37.154 183.972 37.0238 183.9 36.9033C183.832 36.7796 183.728 36.6803 183.588 36.6055C183.448 36.5273 183.272 36.4883 183.061 36.4883C182.859 36.4883 182.691 36.5208 182.558 36.5859C182.427 36.6478 182.33 36.7292 182.265 36.8301C182.203 36.931 182.172 37.0417 182.172 37.1621C182.172 37.25 182.188 37.3298 182.221 37.4014C182.257 37.4697 182.315 37.5332 182.396 37.5918C182.478 37.6471 182.589 37.6992 182.729 37.748C182.872 37.7969 183.051 37.8441 183.266 37.8896C183.669 37.9743 184.016 38.0833 184.306 38.2168C184.599 38.347 184.823 38.5163 184.979 38.7246C185.136 38.9297 185.214 39.1901 185.214 39.5059C185.214 39.7402 185.163 39.9551 185.062 40.1504C184.965 40.3424 184.822 40.5101 184.633 40.6533C184.444 40.7933 184.218 40.9023 183.954 40.9805C183.694 41.0586 183.401 41.0977 183.075 41.0977C182.597 41.0977 182.191 41.013 181.859 40.8438C181.527 40.6712 181.275 40.4515 181.103 40.1846C180.933 39.9144 180.849 39.6344 180.849 39.3447H181.986C181.999 39.5628 182.06 39.737 182.167 39.8672C182.278 39.9941 182.414 40.0869 182.577 40.1455C182.743 40.2008 182.914 40.2285 183.09 40.2285C183.301 40.2285 183.479 40.2008 183.622 40.1455C183.765 40.0869 183.874 40.0088 183.949 39.9111C184.024 39.8102 184.062 39.6963 184.062 39.5693ZM188.666 35.7168V36.5762H185.688V35.7168H188.666ZM186.547 34.4229H187.724V39.54C187.724 39.7028 187.746 39.8281 187.792 39.916C187.841 40.0007 187.908 40.0576 187.992 40.0869C188.077 40.1162 188.176 40.1309 188.29 40.1309C188.371 40.1309 188.45 40.126 188.524 40.1162C188.599 40.1064 188.66 40.0967 188.705 40.0869L188.71 40.9854C188.612 41.0146 188.498 41.0407 188.368 41.0635C188.241 41.0863 188.095 41.0977 187.929 41.0977C187.659 41.0977 187.419 41.0505 187.211 40.9561C187.003 40.8584 186.84 40.7005 186.723 40.4824C186.605 40.2643 186.547 39.9746 186.547 39.6133V34.4229ZM190.834 35.7168V41H189.652V35.7168H190.834ZM189.574 34.3301C189.574 34.151 189.633 34.0029 189.75 33.8857C189.87 33.7653 190.036 33.7051 190.248 33.7051C190.456 33.7051 190.621 33.7653 190.741 33.8857C190.862 34.0029 190.922 34.151 190.922 34.3301C190.922 34.5059 190.862 34.6523 190.741 34.7695C190.621 34.8867 190.456 34.9453 190.248 34.9453C190.036 34.9453 189.87 34.8867 189.75 34.7695C189.633 34.6523 189.574 34.5059 189.574 34.3301ZM193.715 41H192.538V35.209C192.538 34.8151 192.611 34.4847 192.758 34.2178C192.908 33.9476 193.121 33.7441 193.397 33.6074C193.674 33.4674 194.001 33.3975 194.379 33.3975C194.496 33.3975 194.612 33.4056 194.726 33.4219C194.84 33.4349 194.95 33.4561 195.058 33.4854L195.028 34.3936C194.963 34.3773 194.892 34.3659 194.813 34.3594C194.739 34.3529 194.657 34.3496 194.569 34.3496C194.39 34.3496 194.236 34.3838 194.105 34.4521C193.979 34.5173 193.881 34.6133 193.812 34.7402C193.747 34.8672 193.715 35.0234 193.715 35.209V41ZM194.804 35.7168V36.5762H191.728V35.7168H194.804ZM198.637 39.9404V37.4209C198.637 37.2321 198.603 37.0693 198.534 36.9326C198.466 36.7959 198.362 36.6901 198.222 36.6152C198.085 36.5404 197.912 36.5029 197.704 36.5029C197.512 36.5029 197.346 36.5355 197.206 36.6006C197.066 36.6657 196.957 36.7536 196.879 36.8643C196.801 36.9749 196.762 37.1003 196.762 37.2402H195.59C195.59 37.0319 195.64 36.8301 195.741 36.6348C195.842 36.4395 195.989 36.2653 196.181 36.1123C196.373 35.9593 196.602 35.8389 196.869 35.751C197.136 35.6631 197.436 35.6191 197.768 35.6191C198.165 35.6191 198.516 35.6859 198.822 35.8193C199.132 35.9528 199.374 36.1546 199.55 36.4248C199.729 36.6917 199.818 37.027 199.818 37.4307V39.7793C199.818 40.0202 199.835 40.2367 199.867 40.4287C199.903 40.6175 199.953 40.7819 200.019 40.9219V41H198.812C198.757 40.873 198.713 40.7119 198.681 40.5166C198.651 40.318 198.637 40.126 198.637 39.9404ZM198.808 37.7871L198.817 38.5146H197.973C197.755 38.5146 197.562 38.5358 197.396 38.5781C197.23 38.6172 197.092 38.6758 196.981 38.7539C196.871 38.832 196.788 38.9264 196.732 39.0371C196.677 39.1478 196.649 39.2731 196.649 39.4131C196.649 39.5531 196.682 39.6816 196.747 39.7988C196.812 39.9128 196.907 40.0023 197.03 40.0674C197.157 40.1325 197.31 40.165 197.489 40.165C197.73 40.165 197.94 40.1162 198.119 40.0186C198.301 39.9176 198.445 39.7956 198.549 39.6523C198.653 39.5059 198.708 39.3675 198.715 39.2373L199.096 39.7598C199.057 39.8932 198.99 40.0365 198.896 40.1895C198.801 40.3424 198.677 40.4889 198.524 40.6289C198.375 40.7656 198.194 40.8779 197.982 40.9658C197.774 41.0537 197.533 41.0977 197.26 41.0977C196.915 41.0977 196.607 41.0293 196.337 40.8926C196.067 40.7526 195.855 40.5654 195.702 40.3311C195.549 40.0934 195.473 39.8249 195.473 39.5254C195.473 39.2454 195.525 38.998 195.629 38.7832C195.736 38.5651 195.893 38.3828 196.098 38.2363C196.306 38.0898 196.56 37.9792 196.859 37.9043C197.159 37.8262 197.501 37.7871 197.885 37.7871H198.808ZM204.271 39.9062V33.5H205.453V41H204.384L204.271 39.9062ZM200.834 38.417V38.3145C200.834 37.9141 200.881 37.5495 200.976 37.2207C201.07 36.8887 201.207 36.6038 201.386 36.3662C201.565 36.1253 201.783 35.9414 202.04 35.8145C202.297 35.6842 202.587 35.6191 202.909 35.6191C203.228 35.6191 203.508 35.681 203.749 35.8047C203.99 35.9284 204.195 36.1058 204.364 36.3369C204.534 36.5648 204.669 36.8382 204.77 37.1572C204.87 37.473 204.942 37.8245 204.984 38.2119V38.5391C204.942 38.9167 204.87 39.2617 204.77 39.5742C204.669 39.8867 204.534 40.1569 204.364 40.3848C204.195 40.6126 203.988 40.7884 203.744 40.9121C203.503 41.0358 203.222 41.0977 202.899 41.0977C202.58 41.0977 202.292 41.0309 202.035 40.8975C201.781 40.764 201.565 40.5768 201.386 40.3359C201.207 40.0951 201.07 39.8118 200.976 39.4863C200.881 39.1576 200.834 38.8011 200.834 38.417ZM202.011 38.3145V38.417C202.011 38.6579 202.032 38.8825 202.074 39.0908C202.12 39.2992 202.19 39.4831 202.284 39.6426C202.379 39.7988 202.501 39.9225 202.65 40.0137C202.803 40.1016 202.986 40.1455 203.197 40.1455C203.464 40.1455 203.684 40.0869 203.856 39.9697C204.029 39.8525 204.164 39.6947 204.262 39.4961C204.363 39.2943 204.431 39.0697 204.467 38.8223V37.9385C204.447 37.7464 204.407 37.5674 204.345 37.4014C204.286 37.2354 204.206 37.0905 204.105 36.9668C204.005 36.8398 203.879 36.7422 203.729 36.6738C203.583 36.6022 203.409 36.5664 203.207 36.5664C202.992 36.5664 202.81 36.612 202.66 36.7031C202.51 36.7943 202.387 36.9196 202.289 37.0791C202.195 37.2386 202.125 37.4242 202.079 37.6357C202.034 37.8473 202.011 38.0736 202.011 38.3145ZM209.013 41.0977C208.622 41.0977 208.269 41.0342 207.953 40.9072C207.641 40.777 207.374 40.5964 207.152 40.3652C206.934 40.1341 206.767 39.8623 206.649 39.5498C206.532 39.2373 206.474 38.9004 206.474 38.5391V38.3438C206.474 37.9303 206.534 37.556 206.654 37.2207C206.775 36.8854 206.942 36.599 207.157 36.3613C207.372 36.1204 207.626 35.9365 207.919 35.8096C208.212 35.6826 208.529 35.6191 208.871 35.6191C209.249 35.6191 209.579 35.6826 209.862 35.8096C210.146 35.9365 210.38 36.1156 210.565 36.3467C210.754 36.5745 210.894 36.8464 210.985 37.1621C211.08 37.4779 211.127 37.8262 211.127 38.207V38.71H207.045V37.8652H209.965V37.7725C209.958 37.5609 209.916 37.3623 209.838 37.1768C209.763 36.9912 209.647 36.8415 209.491 36.7275C209.335 36.6136 209.127 36.5566 208.866 36.5566C208.671 36.5566 208.497 36.599 208.344 36.6836C208.194 36.765 208.069 36.8838 207.968 37.04C207.867 37.1963 207.789 37.3851 207.733 37.6064C207.681 37.8245 207.655 38.0703 207.655 38.3438V38.5391C207.655 38.7702 207.686 38.985 207.748 39.1836C207.813 39.3789 207.908 39.5498 208.031 39.6963C208.155 39.8428 208.305 39.9583 208.48 40.043C208.656 40.1243 208.856 40.165 209.081 40.165C209.364 40.165 209.617 40.1081 209.838 39.9941C210.059 39.8802 210.251 39.7191 210.414 39.5107L211.034 40.1113C210.92 40.2773 210.772 40.4368 210.59 40.5898C210.408 40.7396 210.185 40.8617 209.921 40.9561C209.66 41.0505 209.358 41.0977 209.013 41.0977ZM18.9346 57.0977C18.5439 57.0977 18.1908 57.0342 17.875 56.9072C17.5625 56.777 17.2956 56.5964 17.0742 56.3652C16.8561 56.1341 16.6885 55.8623 16.5713 55.5498C16.4541 55.2373 16.3955 54.9004 16.3955 54.5391V54.3438C16.3955 53.9303 16.4557 53.556 16.5762 53.2207C16.6966 52.8854 16.8643 52.599 17.0791 52.3613C17.2939 52.1204 17.5479 51.9365 17.8408 51.8096C18.1338 51.6826 18.4512 51.6191 18.793 51.6191C19.1706 51.6191 19.501 51.6826 19.7842 51.8096C20.0674 51.9365 20.3018 52.1156 20.4873 52.3467C20.6761 52.5745 20.8161 52.8464 20.9072 53.1621C21.0016 53.4779 21.0488 53.8262 21.0488 54.207V54.71H16.9668V53.8652H19.8867V53.7725C19.8802 53.5609 19.8379 53.3623 19.7598 53.1768C19.6849 52.9912 19.5693 52.8415 19.4131 52.7275C19.2568 52.6136 19.0485 52.5566 18.7881 52.5566C18.5928 52.5566 18.4186 52.599 18.2656 52.6836C18.1159 52.765 17.9906 52.8838 17.8896 53.04C17.7887 53.1963 17.7106 53.3851 17.6553 53.6064C17.6032 53.8245 17.5771 54.0703 17.5771 54.3438V54.5391C17.5771 54.7702 17.6081 54.985 17.6699 55.1836C17.735 55.3789 17.8294 55.5498 17.9531 55.6963C18.0768 55.8428 18.2266 55.9583 18.4023 56.043C18.5781 56.1243 18.7783 56.165 19.0029 56.165C19.2861 56.165 19.5384 56.1081 19.7598 55.9941C19.9811 55.8802 20.1732 55.7191 20.3359 55.5107L20.9561 56.1113C20.8421 56.2773 20.694 56.4368 20.5117 56.5898C20.3294 56.7396 20.1064 56.8617 19.8428 56.9561C19.5824 57.0505 19.2796 57.0977 18.9346 57.0977ZM25.1895 55.9062V49.5H26.3711V57H25.3018L25.1895 55.9062ZM21.752 54.417V54.3145C21.752 53.9141 21.7992 53.5495 21.8936 53.2207C21.988 52.8887 22.1247 52.6038 22.3037 52.3662C22.4827 52.1253 22.7008 51.9414 22.958 51.8145C23.2152 51.6842 23.5049 51.6191 23.8271 51.6191C24.1462 51.6191 24.4261 51.681 24.667 51.8047C24.9079 51.9284 25.113 52.1058 25.2822 52.3369C25.4515 52.5648 25.5866 52.8382 25.6875 53.1572C25.7884 53.473 25.86 53.8245 25.9023 54.2119V54.5391C25.86 54.9167 25.7884 55.2617 25.6875 55.5742C25.5866 55.8867 25.4515 56.1569 25.2822 56.3848C25.113 56.6126 24.9062 56.7884 24.6621 56.9121C24.4212 57.0358 24.1396 57.0977 23.8174 57.0977C23.4984 57.0977 23.2103 57.0309 22.9531 56.8975C22.6992 56.764 22.4827 56.5768 22.3037 56.3359C22.1247 56.0951 21.988 55.8118 21.8936 55.4863C21.7992 55.1576 21.752 54.8011 21.752 54.417ZM22.9287 54.3145V54.417C22.9287 54.6579 22.9499 54.8825 22.9922 55.0908C23.0378 55.2992 23.1077 55.4831 23.2021 55.6426C23.2965 55.7988 23.4186 55.9225 23.5684 56.0137C23.7214 56.1016 23.9036 56.1455 24.1152 56.1455C24.3822 56.1455 24.6019 56.0869 24.7744 55.9697C24.9469 55.8525 25.082 55.6947 25.1797 55.4961C25.2806 55.2943 25.349 55.0697 25.3848 54.8223V53.9385C25.3652 53.7464 25.3245 53.5674 25.2627 53.4014C25.2041 53.2354 25.1243 53.0905 25.0234 52.9668C24.9225 52.8398 24.7972 52.7422 24.6475 52.6738C24.501 52.6022 24.3268 52.5664 24.125 52.5664C23.9102 52.5664 23.7279 52.612 23.5781 52.7031C23.4284 52.7943 23.3047 52.9196 23.207 53.0791C23.1126 53.2386 23.0426 53.4242 22.9971 53.6357C22.9515 53.8473 22.9287 54.0736 22.9287 54.3145ZM29.9307 57.0977C29.54 57.0977 29.1868 57.0342 28.8711 56.9072C28.5586 56.777 28.2917 56.5964 28.0703 56.3652C27.8522 56.1341 27.6846 55.8623 27.5674 55.5498C27.4502 55.2373 27.3916 54.9004 27.3916 54.5391V54.3438C27.3916 53.9303 27.4518 53.556 27.5723 53.2207C27.6927 52.8854 27.8604 52.599 28.0752 52.3613C28.29 52.1204 28.5439 51.9365 28.8369 51.8096C29.1299 51.6826 29.4473 51.6191 29.7891 51.6191C30.1667 51.6191 30.4971 51.6826 30.7803 51.8096C31.0635 51.9365 31.2979 52.1156 31.4834 52.3467C31.6722 52.5745 31.8122 52.8464 31.9033 53.1621C31.9977 53.4779 32.0449 53.8262 32.0449 54.207V54.71H27.9629V53.8652H30.8828V53.7725C30.8763 53.5609 30.834 53.3623 30.7559 53.1768C30.681 52.9912 30.5654 52.8415 30.4092 52.7275C30.2529 52.6136 30.0446 52.5566 29.7842 52.5566C29.5889 52.5566 29.4147 52.599 29.2617 52.6836C29.112 52.765 28.9867 52.8838 28.8857 53.04C28.7848 53.1963 28.7067 53.3851 28.6514 53.6064C28.5993 53.8245 28.5732 54.0703 28.5732 54.3438V54.5391C28.5732 54.7702 28.6042 54.985 28.666 55.1836C28.7311 55.3789 28.8255 55.5498 28.9492 55.6963C29.0729 55.8428 29.2227 55.9583 29.3984 56.043C29.5742 56.1243 29.7744 56.165 29.999 56.165C30.2822 56.165 30.5345 56.1081 30.7559 55.9941C30.9772 55.8802 31.1693 55.7191 31.332 55.5107L31.9521 56.1113C31.8382 56.2773 31.6901 56.4368 31.5078 56.5898C31.3255 56.7396 31.1025 56.8617 30.8389 56.9561C30.5785 57.0505 30.2757 57.0977 29.9307 57.0977ZM35.458 49.5H36.6348V55.8721L36.5225 57H35.458V49.5ZM40.082 54.3096V54.4121C40.082 54.8027 40.0381 55.1624 39.9502 55.4912C39.8656 55.8167 39.7354 56.0999 39.5596 56.3408C39.387 56.5817 39.1722 56.7689 38.915 56.9023C38.6611 57.0326 38.3665 57.0977 38.0312 57.0977C37.7025 57.0977 37.416 57.0358 37.1719 56.9121C36.9277 56.7884 36.7227 56.6126 36.5566 56.3848C36.3939 56.1569 36.262 55.8851 36.1611 55.5693C36.0602 55.2536 35.9886 54.9053 35.9463 54.5244V54.1973C35.9886 53.8132 36.0602 53.4648 36.1611 53.1523C36.262 52.8366 36.3939 52.5648 36.5566 52.3369C36.7227 52.1058 36.9261 51.9284 37.167 51.8047C37.4111 51.681 37.696 51.6191 38.0215 51.6191C38.36 51.6191 38.6579 51.6842 38.915 51.8145C39.1755 51.9447 39.3919 52.1302 39.5645 52.3711C39.737 52.6087 39.8656 52.8919 39.9502 53.2207C40.0381 53.5495 40.082 53.9124 40.082 54.3096ZM38.9053 54.4121V54.3096C38.9053 54.0719 38.8857 53.849 38.8467 53.6406C38.8076 53.429 38.7425 53.2435 38.6514 53.084C38.5635 52.9245 38.443 52.7992 38.29 52.708C38.1403 52.6136 37.9531 52.5664 37.7285 52.5664C37.5202 52.5664 37.3411 52.6022 37.1914 52.6738C37.0417 52.7454 36.9163 52.8431 36.8154 52.9668C36.7145 53.0905 36.6348 53.2337 36.5762 53.3965C36.5208 53.5592 36.4834 53.735 36.4639 53.9238V54.8076C36.4932 55.0518 36.555 55.2764 36.6494 55.4814C36.7471 55.6833 36.8838 55.846 37.0596 55.9697C37.2354 56.0902 37.4616 56.1504 37.7383 56.1504C37.9564 56.1504 38.1403 56.1064 38.29 56.0186C38.4398 55.9307 38.5586 55.8086 38.6465 55.6523C38.7376 55.4928 38.8027 55.3073 38.8418 55.0957C38.8841 54.8841 38.9053 54.6562 38.9053 54.4121ZM42.3379 51.7168V57H41.1562V51.7168H42.3379ZM41.0781 50.3301C41.0781 50.151 41.1367 50.0029 41.2539 49.8857C41.3743 49.7653 41.5404 49.7051 41.752 49.7051C41.9603 49.7051 42.1247 49.7653 42.2451 49.8857C42.3656 50.0029 42.4258 50.151 42.4258 50.3301C42.4258 50.5059 42.3656 50.6523 42.2451 50.7695C42.1247 50.8867 41.9603 50.9453 41.752 50.9453C41.5404 50.9453 41.3743 50.8867 41.2539 50.7695C41.1367 50.6523 41.0781 50.5059 41.0781 50.3301ZM44.8867 49.5V57H43.7051V49.5H44.8867ZM48.5049 57.0977C48.1143 57.0977 47.7611 57.0342 47.4453 56.9072C47.1328 56.777 46.8659 56.5964 46.6445 56.3652C46.4264 56.1341 46.2588 55.8623 46.1416 55.5498C46.0244 55.2373 45.9658 54.9004 45.9658 54.5391V54.3438C45.9658 53.9303 46.026 53.556 46.1465 53.2207C46.2669 52.8854 46.4346 52.599 46.6494 52.3613C46.8643 52.1204 47.1182 51.9365 47.4111 51.8096C47.7041 51.6826 48.0215 51.6191 48.3633 51.6191C48.7409 51.6191 49.0713 51.6826 49.3545 51.8096C49.6377 51.9365 49.8721 52.1156 50.0576 52.3467C50.2464 52.5745 50.3864 52.8464 50.4775 53.1621C50.5719 53.4779 50.6191 53.8262 50.6191 54.207V54.71H46.5371V53.8652H49.457V53.7725C49.4505 53.5609 49.4082 53.3623 49.3301 53.1768C49.2552 52.9912 49.1396 52.8415 48.9834 52.7275C48.8271 52.6136 48.6188 52.5566 48.3584 52.5566C48.1631 52.5566 47.9889 52.599 47.8359 52.6836C47.6862 52.765 47.5609 52.8838 47.46 53.04C47.359 53.1963 47.2809 53.3851 47.2256 53.6064C47.1735 53.8245 47.1475 54.0703 47.1475 54.3438V54.5391C47.1475 54.7702 47.1784 54.985 47.2402 55.1836C47.3053 55.3789 47.3997 55.5498 47.5234 55.6963C47.6471 55.8428 47.7969 55.9583 47.9727 56.043C48.1484 56.1243 48.3486 56.165 48.5732 56.165C48.8564 56.165 49.1087 56.1081 49.3301 55.9941C49.5514 55.8802 49.7435 55.7191 49.9062 55.5107L50.5264 56.1113C50.4124 56.2773 50.2643 56.4368 50.082 56.5898C49.8997 56.7396 49.6768 56.8617 49.4131 56.9561C49.1527 57.0505 48.8499 57.0977 48.5049 57.0977ZM52.7188 52.7227V57H51.542V51.7168H52.665L52.7188 52.7227ZM54.335 51.6826L54.3252 52.7764C54.2536 52.7633 54.1755 52.7536 54.0908 52.7471C54.0094 52.7406 53.9281 52.7373 53.8467 52.7373C53.6449 52.7373 53.4674 52.7666 53.3145 52.8252C53.1615 52.8805 53.0329 52.9619 52.9287 53.0693C52.8278 53.1735 52.7497 53.3005 52.6943 53.4502C52.639 53.5999 52.6064 53.7676 52.5967 53.9531L52.3281 53.9727C52.3281 53.6406 52.3607 53.333 52.4258 53.0498C52.4909 52.7666 52.5885 52.5176 52.7188 52.3027C52.8522 52.0879 53.0182 51.9202 53.2168 51.7998C53.4186 51.6794 53.6514 51.6191 53.915 51.6191C53.9867 51.6191 54.0632 51.6257 54.1445 51.6387C54.2292 51.6517 54.2926 51.6663 54.335 51.6826ZM58.0361 55.5693C58.0361 55.4521 58.0068 55.3464 57.9482 55.252C57.8896 55.1543 57.7773 55.0664 57.6113 54.9883C57.4486 54.9102 57.2077 54.8385 56.8887 54.7734C56.6087 54.7116 56.3516 54.6383 56.1172 54.5537C55.8861 54.4658 55.6875 54.36 55.5215 54.2363C55.3555 54.1126 55.2269 53.9661 55.1357 53.7969C55.0446 53.6276 54.999 53.4323 54.999 53.2109C54.999 52.9961 55.0462 52.7926 55.1406 52.6006C55.235 52.4085 55.3701 52.2393 55.5459 52.0928C55.7217 51.9463 55.9349 51.8307 56.1855 51.7461C56.4395 51.6615 56.7227 51.6191 57.0352 51.6191C57.4779 51.6191 57.8571 51.694 58.1729 51.8438C58.4919 51.9902 58.736 52.1904 58.9053 52.4443C59.0745 52.695 59.1592 52.9782 59.1592 53.2939H57.9824C57.9824 53.154 57.9466 53.0238 57.875 52.9033C57.8066 52.7796 57.7025 52.6803 57.5625 52.6055C57.4225 52.5273 57.2467 52.4883 57.0352 52.4883C56.8333 52.4883 56.6657 52.5208 56.5322 52.5859C56.402 52.6478 56.3044 52.7292 56.2393 52.8301C56.1774 52.931 56.1465 53.0417 56.1465 53.1621C56.1465 53.25 56.1628 53.3298 56.1953 53.4014C56.2311 53.4697 56.2897 53.5332 56.3711 53.5918C56.4525 53.6471 56.5632 53.6992 56.7031 53.748C56.8464 53.7969 57.0254 53.8441 57.2402 53.8896C57.6439 53.9743 57.9906 54.0833 58.2803 54.2168C58.5732 54.347 58.7979 54.5163 58.9541 54.7246C59.1104 54.9297 59.1885 55.1901 59.1885 55.5059C59.1885 55.7402 59.138 55.9551 59.0371 56.1504C58.9395 56.3424 58.7962 56.5101 58.6074 56.6533C58.4186 56.7933 58.1924 56.9023 57.9287 56.9805C57.6683 57.0586 57.3753 57.0977 57.0498 57.0977C56.5713 57.0977 56.166 57.013 55.834 56.8438C55.502 56.6712 55.2497 56.4515 55.0771 56.1846C54.9079 55.9144 54.8232 55.6344 54.8232 55.3447H55.9609C55.974 55.5628 56.0342 55.737 56.1416 55.8672C56.2523 55.9941 56.389 56.0869 56.5518 56.1455C56.7178 56.2008 56.8887 56.2285 57.0645 56.2285C57.276 56.2285 57.4535 56.2008 57.5967 56.1455C57.7399 56.0869 57.849 56.0088 57.9238 55.9111C57.9987 55.8102 58.0361 55.6963 58.0361 55.5693ZM61.4785 51.7168V57H60.2969V51.7168H61.4785ZM60.2188 50.3301C60.2188 50.151 60.2773 50.0029 60.3945 49.8857C60.515 49.7653 60.681 49.7051 60.8926 49.7051C61.1009 49.7051 61.2653 49.7653 61.3857 49.8857C61.5062 50.0029 61.5664 50.151 61.5664 50.3301C61.5664 50.5059 61.5062 50.6523 61.3857 50.7695C61.2653 50.8867 61.1009 50.9453 60.8926 50.9453C60.681 50.9453 60.515 50.8867 60.3945 50.7695C60.2773 50.6523 60.2188 50.5059 60.2188 50.3301ZM66.8545 56.0625V57H62.9189V56.0625H66.8545ZM66.7471 52.4492L63.3193 57H62.5576V56.2432L65.9658 51.7168H66.7471V52.4492ZM66.293 51.7168V52.6543H62.6162V51.7168H66.293Z" fill="#61656F"/>
<rect x="226.5" y="21.5" width="104" height="31" rx="5.5" stroke="#F37321"/>
<path d="M242.982 31.5264V41.5H241.014V33.7959L238.648 34.5479V32.9961L242.771 31.5264H242.982ZM248.075 36.9678L246.503 36.5918L247.07 31.5469H252.662V33.1396H248.69L248.444 35.3477C248.576 35.2702 248.777 35.1882 249.046 35.1016C249.315 35.0104 249.616 34.9648 249.948 34.9648C250.431 34.9648 250.86 35.04 251.233 35.1904C251.607 35.3408 251.924 35.5596 252.184 35.8467C252.448 36.1338 252.648 36.4847 252.785 36.8994C252.922 37.3141 252.99 37.7835 252.99 38.3076C252.99 38.7497 252.922 39.1712 252.785 39.5723C252.648 39.9688 252.441 40.3242 252.163 40.6387C251.885 40.9486 251.536 41.1924 251.117 41.3701C250.698 41.5479 250.201 41.6367 249.627 41.6367C249.199 41.6367 248.784 41.5729 248.383 41.4453C247.986 41.3177 247.629 41.1286 247.31 40.8779C246.995 40.6273 246.742 40.3242 246.551 39.9688C246.364 39.6087 246.266 39.1986 246.257 38.7383H248.212C248.239 39.0208 248.312 39.2646 248.431 39.4697C248.554 39.6702 248.715 39.8252 248.916 39.9346C249.117 40.0439 249.351 40.0986 249.62 40.0986C249.871 40.0986 250.085 40.0508 250.263 39.9551C250.44 39.8594 250.584 39.7272 250.693 39.5586C250.803 39.3854 250.882 39.1849 250.933 38.957C250.987 38.7246 251.015 38.474 251.015 38.2051C251.015 37.9362 250.983 37.6924 250.919 37.4736C250.855 37.2549 250.757 37.0658 250.625 36.9062C250.493 36.7467 250.324 36.6237 250.119 36.5371C249.919 36.4505 249.684 36.4072 249.415 36.4072C249.05 36.4072 248.768 36.4642 248.567 36.5781C248.371 36.6921 248.207 36.8219 248.075 36.9678ZM260.961 35.6484V37.3711C260.961 38.1185 260.881 38.7633 260.722 39.3057C260.562 39.8434 260.332 40.2855 260.031 40.6318C259.735 40.9736 259.382 41.2266 258.972 41.3906C258.562 41.5547 258.106 41.6367 257.604 41.6367C257.203 41.6367 256.83 41.5866 256.483 41.4863C256.137 41.3815 255.825 41.2197 255.547 41.001C255.273 40.7822 255.036 40.5065 254.836 40.1738C254.64 39.8366 254.49 39.4355 254.385 38.9707C254.28 38.5059 254.228 37.9727 254.228 37.3711V35.6484C254.228 34.901 254.307 34.2607 254.467 33.7275C254.631 33.1898 254.861 32.75 255.157 32.4082C255.458 32.0664 255.813 31.8158 256.224 31.6562C256.634 31.4922 257.09 31.4102 257.591 31.4102C257.992 31.4102 258.363 31.4626 258.705 31.5674C259.051 31.6676 259.364 31.8249 259.642 32.0391C259.92 32.2533 260.157 32.529 260.353 32.8662C260.549 33.1989 260.699 33.5977 260.804 34.0625C260.909 34.5228 260.961 35.0514 260.961 35.6484ZM258.985 37.6309V35.3818C258.985 35.0218 258.965 34.7074 258.924 34.4385C258.887 34.1696 258.83 33.9417 258.753 33.7549C258.675 33.5635 258.58 33.4085 258.466 33.29C258.352 33.1715 258.222 33.085 258.076 33.0303C257.93 32.9756 257.769 32.9482 257.591 32.9482C257.368 32.9482 257.169 32.9915 256.996 33.0781C256.827 33.1647 256.684 33.3037 256.565 33.4951C256.447 33.682 256.356 33.9326 256.292 34.2471C256.233 34.557 256.203 34.9352 256.203 35.3818V37.6309C256.203 37.9909 256.221 38.3076 256.258 38.5811C256.299 38.8545 256.358 39.0892 256.436 39.2852C256.518 39.4766 256.613 39.6338 256.723 39.7568C256.837 39.8753 256.966 39.9619 257.112 40.0166C257.263 40.0713 257.427 40.0986 257.604 40.0986C257.823 40.0986 258.017 40.0553 258.186 39.9688C258.359 39.8776 258.505 39.7363 258.623 39.5449C258.746 39.349 258.837 39.0938 258.896 38.7793C258.956 38.4648 258.985 38.082 258.985 37.6309ZM269 35.6484V37.3711C269 38.1185 268.92 38.7633 268.761 39.3057C268.601 39.8434 268.371 40.2855 268.07 40.6318C267.774 40.9736 267.421 41.2266 267.011 41.3906C266.601 41.5547 266.145 41.6367 265.644 41.6367C265.243 41.6367 264.869 41.5866 264.522 41.4863C264.176 41.3815 263.864 41.2197 263.586 41.001C263.312 40.7822 263.076 40.5065 262.875 40.1738C262.679 39.8366 262.529 39.4355 262.424 38.9707C262.319 38.5059 262.267 37.9727 262.267 37.3711V35.6484C262.267 34.901 262.346 34.2607 262.506 33.7275C262.67 33.1898 262.9 32.75 263.196 32.4082C263.497 32.0664 263.853 31.8158 264.263 31.6562C264.673 31.4922 265.129 31.4102 265.63 31.4102C266.031 31.4102 266.402 31.4626 266.744 31.5674C267.09 31.6676 267.403 31.8249 267.681 32.0391C267.959 32.2533 268.196 32.529 268.392 32.8662C268.588 33.1989 268.738 33.5977 268.843 34.0625C268.948 34.5228 269 35.0514 269 35.6484ZM267.024 37.6309V35.3818C267.024 35.0218 267.004 34.7074 266.963 34.4385C266.926 34.1696 266.869 33.9417 266.792 33.7549C266.715 33.5635 266.619 33.4085 266.505 33.29C266.391 33.1715 266.261 33.085 266.115 33.0303C265.969 32.9756 265.808 32.9482 265.63 32.9482C265.407 32.9482 265.208 32.9915 265.035 33.0781C264.867 33.1647 264.723 33.3037 264.604 33.4951C264.486 33.682 264.395 33.9326 264.331 34.2471C264.272 34.557 264.242 34.9352 264.242 35.3818V37.6309C264.242 37.9909 264.26 38.3076 264.297 38.5811C264.338 38.8545 264.397 39.0892 264.475 39.2852C264.557 39.4766 264.652 39.6338 264.762 39.7568C264.876 39.8753 265.006 39.9619 265.151 40.0166C265.302 40.0713 265.466 40.0986 265.644 40.0986C265.862 40.0986 266.056 40.0553 266.225 39.9688C266.398 39.8776 266.544 39.7363 266.662 39.5449C266.785 39.349 266.876 39.0938 266.936 38.7793C266.995 38.4648 267.024 38.082 267.024 37.6309ZM278.078 33.249L275.371 41.5H273.19L276.889 31.5469H278.276L278.078 33.249ZM280.327 41.5L277.613 33.249L277.395 31.5469H278.796L282.515 41.5H280.327ZM280.204 37.7949V39.4014H274.947V37.7949H280.204ZM289.282 39.9619V41.5H283.663V39.9619H289.282ZM289.173 35.2383L284.456 41.5H283.137V40.3311L287.833 34.1035H289.173V35.2383ZM288.476 34.1035V35.6484H283.246V34.1035H288.476ZM292.447 35.6826V41.5H290.479V34.1035H292.324L292.447 35.6826ZM292.16 37.542H291.627C291.627 36.9951 291.698 36.5029 291.839 36.0654C291.98 35.6234 292.178 35.2474 292.434 34.9375C292.689 34.623 292.992 34.3838 293.343 34.2197C293.698 34.0511 294.095 33.9668 294.532 33.9668C294.879 33.9668 295.195 34.0169 295.482 34.1172C295.77 34.2174 296.016 34.377 296.221 34.5957C296.43 34.8145 296.59 35.1038 296.699 35.4639C296.813 35.8239 296.87 36.2637 296.87 36.7832V41.5H294.888V36.7764C294.888 36.4482 294.842 36.193 294.751 36.0107C294.66 35.8285 294.525 35.7008 294.348 35.6279C294.174 35.5505 293.96 35.5117 293.705 35.5117C293.441 35.5117 293.211 35.5641 293.015 35.6689C292.823 35.7738 292.664 35.9196 292.536 36.1064C292.413 36.2887 292.32 36.5029 292.256 36.749C292.192 36.9951 292.16 37.2594 292.16 37.542ZM302.619 31.5469L298.969 42.3545H297.506L301.156 31.5469H302.619ZM307.732 33.249L305.025 41.5H302.845L306.543 31.5469H307.931L307.732 33.249ZM309.981 41.5L307.268 33.249L307.049 31.5469H308.45L312.169 41.5H309.981ZM309.858 37.7949V39.4014H304.602V37.7949H309.858ZM314.821 40.666L316.783 34.1035H318.896L315.922 42.6143C315.858 42.8011 315.771 43.0016 315.662 43.2158C315.557 43.43 315.414 43.6328 315.231 43.8242C315.054 44.0202 314.828 44.1797 314.555 44.3027C314.286 44.4258 313.955 44.4873 313.563 44.4873C313.377 44.4873 313.224 44.4759 313.105 44.4531C312.987 44.4303 312.846 44.3984 312.682 44.3574V42.915C312.732 42.915 312.784 42.915 312.839 42.915C312.894 42.9196 312.946 42.9219 312.996 42.9219C313.256 42.9219 313.468 42.8923 313.632 42.833C313.796 42.7738 313.928 42.6826 314.028 42.5596C314.129 42.4411 314.208 42.2861 314.268 42.0947L314.821 40.666ZM314.001 34.1035L315.607 39.4629L315.888 41.5479L314.548 41.6914L311.889 34.1035H314.001Z" fill="#F0EEEE"/>
</svg>
