<svg width="210" height="110" viewBox="0 0 210 110" fill="none" xmlns="http://www.w3.org/2000/svg">
<path d="M112.895 52.8683L112.428 54.2938L112.895 52.8683ZM199.5 0L192.188 15.7015L209.442 14.1829L199.5 0ZM2 109.499L3.48467 109.713C3.8007 107.52 4.25176 105.191 4.84987 102.772L3.3937 102.412L1.93754 102.052C1.31634 104.565 0.845952 106.991 0.515332 109.285L2 109.499ZM8.09523 88.7255L9.46617 89.3342C11.3193 85.1606 13.6012 80.9642 16.3574 76.9259L15.1184 76.0803L13.8795 75.2347C11.0131 79.4345 8.64489 83.7913 6.7243 88.1168L8.09523 88.7255ZM24.4098 65.0017L25.4542 66.0784C28.7473 62.8842 32.4522 59.951 36.6025 57.4055L35.8183 56.1268L35.034 54.8482C30.6854 57.5153 26.8075 60.5863 23.3654 63.925L24.4098 65.0017ZM48.9068 49.9821L49.3923 51.4014C53.6353 49.9501 58.2275 48.8585 63.1914 48.2071L62.9962 46.7198L62.801 45.2326C57.6439 45.9094 52.857 47.0456 48.4213 48.5629L48.9068 49.9821ZM77.4173 46.0721L77.3649 47.5711C81.8526 47.7278 86.59 48.2081 91.5879 49.0536L91.8381 47.5746L92.0883 46.0956C86.9672 45.2293 82.0975 44.7345 77.4696 44.573L77.4173 46.0721ZM105.959 50.7619L105.555 52.2066C107.8 52.8337 110.091 53.5285 112.428 54.2938L112.895 52.8683L113.361 51.4428C110.984 50.6642 108.651 49.9565 106.362 49.3172L105.959 50.7619ZM112.895 52.8683L112.428 54.2938C114.544 54.9871 116.614 55.6259 118.638 56.212L119.055 54.7712L119.473 53.3304C117.483 52.7543 115.447 52.1257 113.361 51.4428L112.895 52.8683ZM131.529 57.8433L131.235 59.3143C135.784 60.2223 140.062 60.8288 144.084 61.1608L144.208 59.6659L144.331 58.171C140.433 57.8493 136.269 57.26 131.822 56.3723L131.529 57.8433ZM157.041 59.748L157.159 61.2433C161.903 60.8678 166.195 60.0311 170.069 58.803L169.616 57.3731L169.163 55.9432C165.524 57.0968 161.458 57.8936 156.923 58.2527L157.041 59.748ZM181.114 51.7893L181.97 53.0212C185.77 50.3813 188.912 47.2433 191.482 43.7827L190.278 42.8882L189.074 41.9938C186.686 45.2088 183.775 48.1141 180.258 50.5575L181.114 51.7893ZM196.339 31.6217L197.744 32.1487C199.305 27.9879 200.333 23.6714 200.937 19.401L199.452 19.1911L197.966 18.9812C197.389 23.0646 196.41 27.165 194.935 31.0946L196.339 31.6217Z" fill="black"/>
</svg>
