<svg width="209" height="120" viewBox="0 0 209 120" fill="none" xmlns="http://www.w3.org/2000/svg">
<path d="M6.79913 18.0645L7.95147 19.0248L6.79913 18.0645ZM26.2965 119.565L39.3929 108.23L23.0282 102.556L26.2965 119.565ZM207.798 49.0647L206.626 48.1277C205.645 49.3537 203.836 50.6401 201.13 51.914L201.769 53.2711L202.408 54.6282C205.272 53.2799 207.566 51.7552 208.969 50.0017L207.798 49.0647ZM187.753 57.8174L187.407 56.3576C183.101 57.3762 178.242 58.2962 172.947 59.1065L173.174 60.5893L173.401 62.072C178.757 61.2523 183.697 60.318 188.098 59.2771L187.753 57.8174ZM158.45 62.4486L158.297 60.9565C153.561 61.4428 148.619 61.8534 143.53 62.1835L143.627 63.6804L143.725 65.1772C148.848 64.8449 153.828 64.4312 158.604 63.9408L158.45 62.4486ZM128.84 64.3976L128.791 62.8984C123.917 63.0578 118.968 63.1455 113.991 63.1578L113.995 64.6578L113.999 66.1578C119.006 66.1454 123.985 66.0572 128.889 65.8968L128.84 64.3976ZM99.1615 64.4693L99.2037 62.9698C94.2489 62.8305 89.3118 62.6132 84.4374 62.3144L84.3456 63.8116L84.2538 65.3088C89.1628 65.6097 94.1331 65.8284 99.1193 65.9687L99.1615 64.4693ZM69.5477 62.6276L69.6969 61.135C64.6731 60.6329 59.776 60.0336 55.0606 59.3331L54.8402 60.8168L54.6197 62.3005C59.3873 63.0088 64.3321 63.6138 69.3985 64.1201L69.5477 62.6276ZM40.2112 58.1788L40.529 56.7128C35.4152 55.6044 30.6579 54.3458 26.3492 52.9314L25.8813 54.3565L25.4135 55.7817C29.8396 57.2346 34.6996 58.519 39.8935 59.6447L40.2112 58.1788ZM12.2738 48.5064L13.0235 47.2072C8.10409 44.3682 4.74398 41.2094 3.07813 37.7726L1.72833 38.4268L0.378528 39.0811C2.41024 43.2727 6.33852 46.813 11.524 49.8056L12.2738 48.5064ZM2.58681 24.252L3.9179 24.9435C4.88749 23.0772 6.2183 21.1046 7.95147 19.0248L6.79913 18.0645L5.6468 17.1043C3.80268 19.3172 2.34266 21.4683 1.25572 23.5605L2.58681 24.252ZM6.79913 18.0645L7.95147 19.0248C9.71326 16.9107 11.3858 15.0291 12.9724 13.3666L11.8873 12.331L10.8021 11.2954C9.1627 13.0132 7.44535 14.946 5.6468 17.1043L6.79913 18.0645ZM23.7804 2.88094L24.4159 4.23964C27.1623 2.95506 29.2446 2.86335 30.8506 3.45598C32.4744 4.05515 33.9177 5.46611 35.1384 7.8192L36.4699 7.12847L37.8014 6.43773C36.3796 3.69697 34.4591 1.5898 31.8892 0.641484C29.3016 -0.313359 26.3605 0.0180989 23.1449 1.52223L23.7804 2.88094ZM40.0442 21.8783L38.5511 22.0219C38.986 26.5425 39.112 31.6443 38.9866 37.1046L40.4862 37.139L41.9859 37.1734C42.113 31.6315 41.9867 26.4056 41.5374 21.7347L40.0442 21.8783ZM39.6009 52.3882L38.1068 52.256C37.666 57.2372 37.0853 62.3161 36.4026 67.3531L37.889 67.5545L39.3754 67.756C40.0636 62.6782 40.6498 57.5529 41.0951 52.5204L39.6009 52.3882ZM35.5333 82.6327L34.0562 82.3717C33.1263 87.6324 32.1215 92.6688 31.0924 97.2975L32.5566 97.6231L34.0209 97.9486C35.0601 93.2747 36.0733 88.1952 37.0104 82.8938L35.5333 82.6327Z" fill="black"/>
</svg>
