<svg width="19" height="20" viewBox="0 0 19 20" fill="none" xmlns="http://www.w3.org/2000/svg">
<path fill-rule="evenodd" clip-rule="evenodd" d="M18.8376 5.81769L18.651 19.611C18.6481 19.6842 18.6173 19.7533 18.5649 19.8044C18.5125 19.8555 18.4426 19.8846 18.3694 19.8858L4.59483 19.7119C4.55498 19.7153 4.51486 19.7098 4.47735 19.6959C4.43984 19.6819 4.40584 19.6599 4.37793 19.6312C4.35002 19.6026 4.32874 19.5681 4.31573 19.5303C4.30271 19.4924 4.29822 19.4522 4.30268 19.4123L4.32405 17.6354L15.2089 17.7703L0.549155 2.7428C0.445832 2.64287 0.363625 2.52328 0.307348 2.39104C0.251073 2.25881 0.22189 2.11662 0.221545 1.97291C0.221201 1.8292 0.249752 1.68688 0.305429 1.5544C0.361106 1.4219 0.442766 1.30193 0.545613 1.20157C0.648554 1.10122 0.770439 1.02253 0.904283 0.970158C1.03813 0.91779 1.18114 0.892811 1.32473 0.896696C1.46841 0.900582 1.60988 0.933259 1.74067 0.992784C1.87147 1.05232 1.98901 1.13749 2.08626 1.24325L16.639 16.161L16.7519 5.51688L18.548 5.52084C18.6246 5.52705 18.6964 5.56082 18.7501 5.61589C18.8038 5.67096 18.8358 5.7435 18.8401 5.82031" fill="#101827"/>
</svg>
