<svg width="27" height="21" viewBox="0 0 27 21" fill="none" xmlns="http://www.w3.org/2000/svg">
<path fill-rule="evenodd" clip-rule="evenodd" d="M16.6524 0.57405L26.3956 10.3394C26.4458 10.3926 26.4738 10.4629 26.4738 10.5361C26.4738 10.6092 26.4458 10.6797 26.3955 10.7328L16.6524 20.4714C16.627 20.5023 16.595 20.5272 16.5589 20.5443C16.5227 20.5614 16.4832 20.5703 16.4431 20.5703C16.4032 20.5703 16.3637 20.5615 16.3275 20.5444C16.2913 20.5272 16.2594 20.5024 16.2339 20.4713L14.9769 19.2152L22.6743 11.5179L1.68065 11.5179C1.53697 11.5221 1.39396 11.4974 1.26 11.4454C1.12605 11.3933 1.0039 11.3149 0.900785 11.2148C0.797674 11.1147 0.715739 10.9949 0.659782 10.8625C0.603819 10.7301 0.574964 10.5879 0.574944 10.4442C0.574997 10.3004 0.603779 10.1582 0.659755 10.0259C0.715731 9.8935 0.797721 9.77368 0.900766 9.67362C1.00388 9.57348 1.12606 9.49504 1.26 9.44298C1.39395 9.39092 1.53699 9.36626 1.68061 9.3705L22.521 9.37048L14.9807 1.85692L16.2377 0.574044C16.2956 0.52352 16.3699 0.495718 16.4469 0.495737C16.5238 0.495757 16.598 0.523521 16.6561 0.574031" fill="#101827"/>
</svg>
