<svg width="176" height="81" viewBox="0 0 176 81" fill="none" xmlns="http://www.w3.org/2000/svg">
<path d="M95.4212 43.9048L96.9212 43.9154L95.4212 43.9048ZM2.67031 80.0766L16.6031 69.7869L0.725525 62.8656L2.67031 80.0766ZM174.314 24.2279L175.776 23.891C175.241 21.5726 174.669 19.4478 174.061 17.5071L172.63 17.9557L171.198 18.4043C171.781 20.2618 172.333 22.3112 172.852 24.5648L174.314 24.2279ZM167.041 6.34244L168.215 5.40837C166.422 3.15643 164.425 1.6366 162.232 0.836751C160.034 0.0350141 157.75 -0.00249975 155.46 0.531079L155.8 1.99196L156.141 3.45286C157.958 3.02939 159.638 3.08396 161.204 3.65514C162.775 4.22821 164.344 5.36215 165.867 7.27652L167.041 6.34244ZM144.747 8.47378L143.764 7.34121C140.72 9.98433 137.647 13.202 134.611 16.6986L135.744 17.682L136.877 18.6655C139.861 15.2283 142.832 12.1239 145.731 9.60634L144.747 8.47378ZM127.595 27.7078L126.408 26.7897C123.726 30.2552 121.1 33.7677 118.589 37.1014L119.787 38.0038L120.986 38.9062C123.505 35.561 126.114 32.0711 128.781 28.6259L127.595 27.7078ZM111.883 48.2123L110.721 47.2631C107.265 51.4916 104.329 54.5853 102.032 56.0189L102.826 57.2914L103.621 58.5639C106.392 56.8346 109.608 53.365 113.044 49.1616L111.883 48.2123ZM95.6784 50.4734L97.1706 50.3206C96.9906 48.5626 96.9033 46.4412 96.9212 43.9154L95.4212 43.9048L93.9212 43.8942C93.9028 46.4947 93.992 48.7301 94.1862 50.6262L95.6784 50.4734ZM95.4212 43.9048L96.9212 43.9154C96.9402 41.2253 96.8701 38.7108 96.7153 36.3649L95.2186 36.4636L93.7218 36.5623C93.8713 38.8278 93.9398 41.2688 93.9212 43.8942L95.4212 43.9048ZM92.4535 21.8423L93.8592 21.3188C91.577 15.1903 88.0519 11.3613 83.5276 9.63897L82.994 11.0408L82.4603 12.4427C85.9753 13.7808 88.9823 16.819 91.0478 22.3657L92.4535 21.8423ZM68.4508 11.8574L67.9432 10.4459C63.6243 11.9993 59.0868 14.4501 54.5101 17.507L55.3432 18.7544L56.1763 20.0017C60.6218 17.0325 64.938 14.7149 68.9585 13.2689L68.4508 11.8574ZM43.555 27.8238L42.5746 26.6886C38.8608 29.8961 35.195 33.3715 31.6698 36.9763L32.7422 38.0251L33.8147 39.0738C37.2881 35.5221 40.8926 32.1053 44.5355 28.959L43.555 27.8238ZM22.7333 49.0326L21.588 48.0639C18.2094 52.0582 15.0919 56.05 12.3498 59.8713L13.5685 60.7458L14.7872 61.6203C17.4795 57.8683 20.5476 53.9393 23.8785 50.0013L22.7333 49.0326Z" fill="black"/>
</svg>
