<svg width="251" height="188" viewBox="0 0 251 188" fill="none" xmlns="http://www.w3.org/2000/svg">
<path d="M130.325 186.5L130.325 185L130.325 186.5ZM250.325 165.499L244.216 149.292L233.235 162.687L250.325 165.499ZM0.825673 1.99999L0.230967 3.37706C1.68057 4.00308 3.68141 5.15192 6.18199 6.80799L7.01024 5.55738L7.83848 4.30678C5.29056 2.61936 3.11514 1.35481 1.42038 0.622917L0.825673 1.99999ZM18.6549 14.1117L17.728 15.291C21.1547 17.9845 24.9056 21.05 28.9055 24.429L29.8735 23.2831L30.8414 22.1372C26.8193 18.7395 23.0409 15.6513 19.5819 12.9324L18.6549 14.1117ZM40.7389 32.6944L39.7441 33.8171C43.2194 36.8967 46.8097 40.1411 50.4772 43.5206L51.4937 42.4175L52.5102 41.3144C48.8289 37.9222 45.2241 34.6647 41.7337 31.5718L40.7389 32.6944ZM62.0085 52.2803L60.9729 53.3654C64.3968 56.6334 67.8545 59.9891 71.3178 63.4102L72.3719 62.343L73.4261 61.2759C69.9504 57.8425 66.4803 54.4749 63.0442 51.1953L62.0085 52.2803ZM82.5656 72.5912L81.4926 73.6394C84.8484 77.0741 88.183 80.5501 91.4704 84.0467L92.5633 83.0192L93.6561 81.9918C90.3549 78.4805 87.007 74.9907 83.6385 71.5429L82.5656 72.5912ZM102.352 93.655L101.237 94.6585C104.492 98.2753 107.67 101.892 110.741 105.486L111.881 104.511L113.021 103.537C109.932 99.9218 106.738 96.2859 103.467 92.6516L102.352 93.655ZM121.076 115.612L119.905 116.55C123.013 120.432 125.956 124.257 128.696 127.996L129.905 127.109L131.115 126.223C128.347 122.445 125.378 118.586 122.247 114.675L121.076 115.612ZM138.065 138.94L136.803 139.751C139.593 144.097 142.007 148.253 143.976 152.165L145.316 151.49L146.656 150.816C144.629 146.791 142.161 142.543 139.327 138.13L138.065 138.94ZM150.526 164.883L149.068 165.239C150.413 170.742 150.166 175.077 148.354 178.214L149.652 178.965L150.951 179.715C153.318 175.62 153.412 170.378 151.983 164.527L150.526 164.883ZM137.546 185.964L137.301 184.484C135.262 184.822 132.943 185 130.325 185L130.325 186.5L130.325 188C133.076 188 135.562 187.813 137.791 187.444L137.546 185.964ZM130.325 186.5L130.325 185C127.674 185 125.199 184.952 122.891 184.858L122.83 186.357L122.77 187.856C125.122 187.951 127.638 188 130.325 188L130.325 186.5ZM108.208 184.811L108.502 183.34C104.775 182.596 102.085 181.646 100.267 180.589C98.4491 179.532 97.6362 178.453 97.3685 177.485L95.9229 177.886L94.4772 178.286C95.0271 180.273 96.5448 181.895 98.7593 183.182C100.973 184.469 104.018 185.504 107.915 186.282L108.208 184.811ZM103.811 166.431L104.669 167.661C107.994 165.342 112.303 162.986 117.391 160.728L116.782 159.357L116.174 157.986C110.967 160.297 106.477 162.742 102.953 165.201L103.811 166.431ZM130.566 154.127L131.029 155.554C135.465 154.113 140.195 152.785 145.133 151.616L144.787 150.157L144.442 148.697C139.427 149.884 134.618 151.234 130.103 152.7L130.566 154.127ZM159.278 147.308L159.511 148.79C164.275 148.041 169.143 147.46 174.049 147.085L173.934 145.589L173.82 144.094C168.83 144.476 163.884 145.065 159.045 145.826L159.278 147.308ZM188.679 145.104L188.66 146.604C193.564 146.667 198.441 146.967 203.227 147.54L203.405 146.05L203.583 144.561C198.682 143.975 193.699 143.668 188.699 143.604L188.679 145.104ZM217.906 148.724L217.534 150.177C222.297 151.397 226.885 152.953 231.229 154.883L231.838 153.512L232.447 152.141C227.934 150.136 223.185 148.527 218.278 147.271L217.906 148.724Z" fill="black"/>
</svg>
