<svg width="35" height="24" viewBox="0 0 35 24" fill="none" xmlns="http://www.w3.org/2000/svg">
<rect x="0.5" y="0.5" width="34" height="23" rx="3.5" fill="white" stroke="#D9D9D9"/>
<path d="M13.2734 5.22363C17.0419 5.22388 20.0967 8.31469 20.0967 12.127C20.0965 15.9391 17.0418 19.0291 13.2734 19.0293C9.50488 19.0293 6.4494 15.9392 6.44922 12.127C6.44922 8.31454 9.50477 5.22363 13.2734 5.22363Z" fill="#ED0006"/>
<path d="M22.125 5.22363C25.8935 5.22388 28.9482 8.31469 28.9482 12.127C28.9481 15.9391 25.8933 19.0291 22.125 19.0293C18.3564 19.0293 15.301 15.9392 15.3008 12.127C15.3008 8.31454 18.3563 5.22363 22.125 5.22363Z" fill="#0099DF"/>
<path d="M17.6982 6.875C19.1649 8.14112 20.0957 10.0236 20.0957 12.127C20.0957 14.2301 19.1646 16.1118 17.6982 17.3779C16.2319 16.1118 15.3008 14.23 15.3008 12.127C15.3008 10.0236 16.2316 8.14112 17.6982 6.875Z" fill="#6C6BBD"/>
</svg>
