<svg width="20" height="21" viewBox="0 0 20 21" fill="none" xmlns="http://www.w3.org/2000/svg">
<path d="M15.5541 8.46248C17.5034 8.46248 19.0891 6.77028 19.0891 4.69007C19.0891 4.06493 18.9275 3.4829 18.675 2.96554L15.948 5.87568L14.4431 4.26972L17.1701 1.35957C16.6853 1.09011 16.1399 0.91766 15.5541 0.91766C13.6048 0.91766 12.0191 2.60985 12.0191 4.69007C12.0191 5.13198 12.0999 5.55233 12.2312 5.94035L10.3627 7.93434L8.56486 6.0158L9.28196 5.25054L7.85785 3.7308L9.99907 1.4458C8.81736 0.184734 6.89835 0.184734 5.71664 1.4458L2.14121 5.26132L3.56532 6.78106H0.717105L0 7.54632L3.57542 11.3618L4.29253 10.5966V7.54632L5.71664 9.06606L6.43374 8.30081L8.23155 10.2193L0.747405 18.2061L2.88862 20.4911L14.3825 8.23613C14.7461 8.37625 15.14 8.46248 15.5541 8.46248Z" fill="#323232"/>
</svg>
