<svg width="18" height="19" viewBox="0 0 18 19" fill="none" xmlns="http://www.w3.org/2000/svg">
<path d="M17 10.5H1C0.45 10.5 0 10.95 0 11.5V17.5C0 18.05 0.45 18.5 1 18.5H17C17.55 18.5 18 18.05 18 17.5V11.5C18 10.95 17.55 10.5 17 10.5ZM4 16.5C2.9 16.5 2 15.6 2 14.5C2 13.4 2.9 12.5 4 12.5C5.1 12.5 6 13.4 6 14.5C6 15.6 5.1 16.5 4 16.5ZM17 0.5H1C0.45 0.5 0 0.95 0 1.5V7.5C0 8.05 0.45 8.5 1 8.5H17C17.55 8.5 18 8.05 18 7.5V1.5C18 0.95 17.55 0.5 17 0.5ZM4 6.5C2.9 6.5 2 5.6 2 4.5C2 3.4 2.9 2.5 4 2.5C5.1 2.5 6 3.4 6 4.5C6 5.6 5.1 6.5 4 6.5Z" fill="#101827" fill-opacity="0.56"/>
</svg>
