<svg width="354" height="75" viewBox="0 0 354 75" fill="none" xmlns="http://www.w3.org/2000/svg">
<path d="M351.807 0C352.73 4.8842e-05 353.16 1.14363 352.466 1.75195L346.764 6.74805C346.309 7.14637 346.309 7.85363 346.764 8.25195L353.606 14.248C354.061 14.6464 354.061 15.3536 353.606 15.752L346.764 21.748C346.309 22.1464 346.309 22.8536 346.764 23.252L353.606 29.248C354.061 29.6464 354.061 30.3536 353.606 30.752L346.764 36.748C346.309 37.1464 346.309 37.8536 346.764 38.252L353.606 44.248C354.061 44.6464 354.061 45.3536 353.606 45.752L346.764 51.748C346.309 52.1464 346.309 52.8536 346.764 53.252L353.606 59.248C354.061 59.6464 354.061 60.3536 353.606 60.752L346.764 66.748C346.309 67.1464 346.309 67.8536 346.764 68.252L352.466 73.248C353.16 73.8564 352.73 75 351.807 75H12C5.37258 75 0 69.6274 0 63V12C1.06306e-06 5.37258 5.37258 2.60677e-07 12 0H351.807Z" fill="#101827"/>
</svg>
